<svg width="20" height="20" viewBox="0 0 20 20" fill="none" xmlns="http://www.w3.org/2000/svg">
    <g id="add_link">
        <mask id="mask0_2659_52" style="mask-type:alpha" maskUnits="userSpaceOnUse" x="0" y="0"
            width="20" height="20">
            <rect id="Bounding box" width="20" height="20" fill="#D9D9D9" />
        </mask>
        <g mask="url(#mask0_2659_52)">
            <path id="add_link_2"
                d="M14.1987 13.7821H12.3349C12.1629 13.7821 12.0192 13.7222 11.9039 13.6024C11.7885 13.4826 11.7308 13.3342 11.7308 13.1571C11.7308 12.9851 11.7907 12.8379 11.9105 12.7156C12.0303 12.5933 12.1787 12.5321 12.3558 12.5321H14.1987V10.6891C14.1987 10.5121 14.2587 10.3636 14.3785 10.2438C14.4983 10.124 14.6468 10.0641 14.824 10.0641C15.0012 10.0641 15.1496 10.124 15.2692 10.2438C15.3889 10.3636 15.4487 10.5121 15.4487 10.6891V12.5321H17.2917C17.4687 12.5321 17.6172 12.592 17.737 12.7119C17.8568 12.8317 17.9167 12.9802 17.9167 13.1574C17.9167 13.3345 17.8568 13.4829 17.737 13.6026C17.6172 13.7222 17.4687 13.7821 17.2917 13.7821H15.4487V15.625C15.4487 15.8021 15.3888 15.9505 15.2689 16.0703C15.1491 16.1901 15.0006 16.25 14.8234 16.25C14.6463 16.25 14.4979 16.1901 14.3782 16.0703C14.2586 15.9505 14.1987 15.8021 14.1987 15.625V13.7821ZM8.38142 13.7821H5.8654C4.81904 13.7821 3.92711 13.4134 3.18961 12.676C2.45211 11.9386 2.08336 11.0467 2.08336 10.0005C2.08336 8.95426 2.45211 8.06229 3.18961 7.32458C3.92711 6.58687 4.81904 6.21802 5.8654 6.21802H8.38142C8.55342 6.21802 8.70059 6.27918 8.82292 6.4015C8.94524 6.52383 9.0064 6.67233 9.0064 6.847C9.0064 7.02168 8.94524 7.16884 8.82292 7.2885C8.70059 7.40815 8.55342 7.46798 8.38142 7.46798H5.86444C5.16529 7.46798 4.56865 7.71504 4.07453 8.20916C3.5804 8.70329 3.33334 9.30025 3.33334 10C3.33334 10.6998 3.5804 11.2968 4.07453 11.7909C4.56865 12.285 5.16529 12.5321 5.86444 12.5321H8.38142C8.55342 12.5321 8.70059 12.5933 8.82292 12.7156C8.94524 12.8379 9.0064 12.9864 9.0064 13.1611C9.0064 13.3358 8.94524 13.4829 8.82292 13.6026C8.70059 13.7222 8.55342 13.7821 8.38142 13.7821ZM7.50001 10.625C7.32292 10.625 7.17449 10.5651 7.05471 10.4453C6.93492 10.3254 6.87503 10.1769 6.87503 9.99977C6.87503 9.8226 6.93492 9.67419 7.05471 9.55454C7.17449 9.43489 7.32292 9.37506 7.50001 9.37506H12.5C12.6771 9.37506 12.8255 9.43498 12.9453 9.55481C13.0651 9.67466 13.125 9.82316 13.125 10.0003C13.125 10.1775 13.0651 10.3259 12.9453 10.4455C12.8255 10.5652 12.6771 10.625 12.5 10.625H7.50001ZM17.9167 10H16.6667C16.6667 9.30025 16.4196 8.70329 15.9255 8.20916C15.4314 7.71504 14.8347 7.46798 14.1356 7.46798H11.5978C11.4258 7.46798 11.2821 7.40809 11.1667 7.28831C11.0513 7.16852 10.9936 7.02008 10.9936 6.843C10.9936 6.671 11.0535 6.52383 11.1733 6.4015C11.2931 6.27918 11.4415 6.21802 11.6186 6.21802H14.1346C15.181 6.21802 16.0729 6.58676 16.8104 7.32425C17.5479 8.06175 17.9167 8.95368 17.9167 10Z"
                fill="white" />
        </g>
    </g>
</svg>
