<svg width="10" height="10" viewBox="0 0 10 10" fill="none" xmlns="http://www.w3.org/2000/svg">
<path d="M7.50033 10C7.27703 10 7.08233 9.91694 6.9162 9.75081C6.75006 9.58467 6.66699 9.38996 6.66699 9.16667V0.833333C6.66699 0.610042 6.75006 0.415326 6.9162 0.249187C7.08233 0.0830625 7.27703 0 7.50033 0H8.75033C8.97362 0 9.16833 0.0830625 9.33447 0.249187C9.5006 0.415326 9.58366 0.610042 9.58366 0.833333V9.16667C9.58366 9.38996 9.5006 9.58467 9.33447 9.75081C9.16833 9.91694 8.97362 10 8.75033 10H7.50033ZM1.25033 10C1.02703 10 0.832319 9.91694 0.66618 9.75081C0.500055 9.58467 0.416992 9.38996 0.416992 9.16667V0.833333C0.416992 0.610042 0.500055 0.415326 0.66618 0.249187C0.832319 0.0830625 1.02703 0 1.25033 0H2.50033C2.72362 0 2.91833 0.0830625 3.08445 0.249187C3.25059 0.415326 3.33366 0.610042 3.33366 0.833333V9.16667C3.33366 9.38996 3.25059 9.58467 3.08445 9.75081C2.91833 9.91694 2.72362 10 2.50033 10H1.25033Z" fill="#6B7A8D"/>
</svg>
