<svg width="16" height="16" viewBox="0 0 16 16" fill="white" xmlns="http://www.w3.org/2000/svg">
<path d="M7.28729 0.918723C7.41428 0.105284 8.58572 0.105284 8.71271 0.918723L8.76054 1.22508C9.2444 4.32436 11.6757 6.75568 14.775 7.23954L15.0814 7.28737C15.8948 7.41436 15.8948 8.5858 15.0814 8.71279L14.775 8.76062C11.6757 9.24448 9.2444 11.6758 8.76054 14.7751L8.71271 15.0814C8.58572 15.8949 7.41428 15.8949 7.28729 15.0814L7.23946 14.7751C6.7556 11.6758 4.32428 9.24448 1.225 8.76062L0.918643 8.71279C0.105204 8.5858 0.105204 7.41436 0.918642 7.28737L1.225 7.23954C4.32428 6.75568 6.7556 4.32436 7.23946 1.22508L7.28729 0.918723Z" fill="white"/>
</svg>
