<svg width="24" height="24" viewBox="0 0 24 24" fill="none" xmlns="http://www.w3.org/2000/svg">
<g id="browse_gallery">
<mask id="mask0_1360_27257" style="mask-type:alpha" maskUnits="userSpaceOnUse" x="0" y="0" width="24" height="24">
<rect id="Bounding box" width="24" height="24" fill="#D9D9D9"/>
</mask>
<g mask="url(#mask0_1360_27257)">
<path id="browse_gallery_2" d="M11.8 15.8442L12.8442 14.8L9.74998 11.7026V7.25003H8.25003V12.2942L11.8 15.8442ZM18 19.9615V18.3C19.2333 17.7167 20.2083 16.8583 20.925 15.725C21.6417 14.5917 22 13.35 22 12C22 10.65 21.6417 9.40834 20.925 8.27501C20.2083 7.14167 19.2333 6.28334 18 5.70001V4.03851C19.6628 4.67184 20.9952 5.71318 21.9971 7.16253C22.999 8.61188 23.5 10.2244 23.5 12C23.5 13.7756 22.999 15.3881 21.9971 16.8375C20.9952 18.2868 19.6628 19.3282 18 19.9615ZM9.00055 20.5C7.8207 20.5 6.71539 20.2769 5.68463 19.8307C4.65386 19.3846 3.75514 18.7782 2.98848 18.0115C2.22181 17.2449 1.61541 16.3463 1.16927 15.3159C0.723092 14.2855 0.5 13.1804 0.5 12.0006C0.5 10.8207 0.723083 9.7154 1.16925 8.68463C1.6154 7.65386 2.2218 6.75515 2.98845 5.98848C3.75512 5.22183 4.65365 4.61543 5.68405 4.16928C6.71445 3.72311 7.81957 3.50003 8.99942 3.50003C10.1793 3.50003 11.2846 3.72311 12.3154 4.16928C13.3461 4.61543 14.2448 5.22183 15.0115 5.98848C15.7782 6.75515 16.3846 7.65368 16.8307 8.68408C17.2769 9.71448 17.5 10.8196 17.5 11.9995C17.5 13.1793 17.2769 14.2846 16.8307 15.3154C16.3846 16.3461 15.7782 17.2449 15.0115 18.0115C14.2448 18.7782 13.3463 19.3846 12.3159 19.8307C11.2855 20.2769 10.1804 20.5 9.00055 20.5ZM9 19C10.95 19 12.6042 18.3208 13.9625 16.9625C15.3208 15.6042 16 13.95 16 12C16 10.05 15.3208 8.39584 13.9625 7.03751C12.6042 5.67917 10.95 5.00001 9 5.00001C7.05 5.00001 5.39583 5.67917 4.0375 7.03751C2.67917 8.39584 2 10.05 2 12C2 13.95 2.67917 15.6042 4.0375 16.9625C5.39583 18.3208 7.05 19 9 19Z" fill="#909BAA"/>
</g>
</g>
</svg>
