<svg width="18" height="18" viewBox="0 0 18 18" fill="none" xmlns="http://www.w3.org/2000/svg">
<g id="keyboard_arrow_left">
<mask id="mask0_1428_267" style="mask-type:alpha" maskUnits="userSpaceOnUse" x="0" y="0" width="18" height="18">
<path id="Bounding box" d="M0 0H18V18H0V0Z" fill="#D9D9D9"/>
</mask>
<g mask="url(#mask0_1428_267)">
<path id="keyboard_arrow_left_2" d="M8.10001 8.99998L11.025 11.925C11.1625 12.0625 11.2313 12.2375 11.2313 12.45C11.2313 12.6625 11.1625 12.8375 11.025 12.975C10.8875 13.1125 10.7125 13.1812 10.5 13.1812C10.2875 13.1812 10.1125 13.1125 9.97501 12.975L6.52501 9.52498C6.45001 9.44998 6.39688 9.36873 6.36563 9.28123C6.33438 9.19373 6.31876 9.09998 6.31876 8.99998C6.31876 8.89998 6.33438 8.80623 6.36563 8.71873C6.39688 8.63123 6.45001 8.54998 6.52501 8.47498L9.97501 5.02498C10.1125 4.88748 10.2875 4.81873 10.5 4.81873C10.7125 4.81873 10.8875 4.88748 11.025 5.02498C11.1625 5.16248 11.2313 5.33748 11.2313 5.54998C11.2313 5.76248 11.1625 5.93748 11.025 6.07498L8.10001 8.99998Z" fill="white"/>
</g>
</g>
</svg>
