<svg width="14" height="14" viewBox="0 0 14 14" fill="none" xmlns="http://www.w3.org/2000/svg">
<mask id="mask0_7640_4256" style="mask-type:alpha" maskUnits="userSpaceOnUse" x="0" y="0" width="14" height="14">
<rect width="14" height="14" fill="#D9D9D9"/>
</mask>
<g mask="url(#mask0_7640_4256)">
<path d="M3.98234 10.0176L8.00952 8.00958L10.0175 3.9824L5.99031 5.99038L3.98234 10.0176ZM6.99992 7.58331C6.83464 7.58331 6.6961 7.52741 6.58429 7.4156C6.47249 7.3038 6.41658 7.16526 6.41658 6.99998C6.41658 6.8347 6.47249 6.69616 6.58429 6.58435C6.6961 6.47255 6.83464 6.41665 6.99992 6.41665C7.1652 6.41665 7.30374 6.47255 7.41554 6.58435C7.52735 6.69616 7.58325 6.8347 7.58325 6.99998C7.58325 7.16526 7.52735 7.3038 7.41554 7.4156C7.30374 7.52741 7.1652 7.58331 6.99992 7.58331ZM7.00094 12.5416C6.23444 12.5416 5.51397 12.3962 4.83954 12.1053C4.16511 11.8144 3.57847 11.4197 3.07963 10.921C2.58078 10.4223 2.18581 9.83595 1.89473 9.16181C1.60374 8.48767 1.45825 7.7674 1.45825 7.001C1.45825 6.2345 1.6037 5.51403 1.89459 4.8396C2.18547 4.16517 2.58025 3.57854 3.0789 3.07969C3.57755 2.58084 4.16395 2.18588 4.83809 1.89479C5.51222 1.60381 6.23249 1.45831 6.9989 1.45831C7.7654 1.45831 8.48586 1.60376 9.16029 1.89465C9.83472 2.18553 10.4214 2.58031 10.9202 3.07896C11.4191 3.57761 11.814 4.16401 12.1051 4.83815C12.3961 5.51229 12.5416 6.23256 12.5416 6.99896C12.5416 7.76546 12.3961 8.48592 12.1053 9.16035C11.8144 9.83479 11.4196 10.4214 10.9209 10.9203C10.4223 11.4191 9.83589 11.8141 9.16175 12.1052C8.48761 12.3962 7.76734 12.5416 7.00094 12.5416Z" fill="#1C1B1F"/>
</g>
</svg>
