<svg width="23" height="22" viewBox="0 0 23 22" fill="none" xmlns="http://www.w3.org/2000/svg">
<mask id="mask0_8954_27793" style="mask-type:alpha" maskUnits="userSpaceOnUse" x="10" y="-3" width="16" height="16">
<rect x="10" y="-3" width="16" height="16" fill="white"/>
</mask>
<g mask="url(#mask0_8954_27793)">
<path d="M17.5 5.50005H14.1666C14.025 5.50005 13.9062 5.45212 13.8104 5.35625C13.7145 5.26037 13.6666 5.14157 13.6666 4.99985C13.6666 4.85812 13.7145 4.73939 13.8104 4.64367C13.9062 4.54794 14.025 4.50008 14.1666 4.50008H17.5V1.16675C17.5 1.02508 17.5479 0.906331 17.6438 0.810498C17.7396 0.714665 17.8584 0.666748 18.0002 0.666748C18.1419 0.666748 18.2606 0.714665 18.3563 0.810498C18.4521 0.906331 18.4999 1.02508 18.4999 1.16675V4.50008H21.8333C21.9749 4.50008 22.0937 4.54802 22.1895 4.64388C22.2853 4.73976 22.3333 4.85856 22.3333 5.00028C22.3333 5.14202 22.2853 5.26074 22.1895 5.35647C22.0937 5.45219 21.9749 5.50005 21.8333 5.50005H18.4999V8.83338C18.4999 8.97505 18.452 9.0938 18.3561 9.18963C18.2602 9.28547 18.1414 9.33338 17.9997 9.33338C17.858 9.33338 17.7393 9.28547 17.6435 9.18963C17.5478 9.0938 17.5 8.97505 17.5 8.83338V5.50005Z" fill="white"/>
</g>
<path d="M1.33333 6C1.33333 7.47276 2.52724 8.66667 4 8.66667C5.47276 8.66667 6.66667 7.47276 6.66667 6C6.66667 4.52724 5.47276 3.33333 4 3.33333C2.52724 3.33333 1.33333 4.52724 1.33333 6ZM14.3333 19C14.3333 20.4728 15.5272 21.6667 17 21.6667C18.4728 21.6667 19.6667 20.4728 19.6667 19C19.6667 17.5272 18.4728 16.3333 17 16.3333C15.5272 16.3333 14.3333 17.5272 14.3333 19ZM3.64645 6.35355L16.6464 19.3536L17.3536 18.6464L4.35355 5.64645L3.64645 6.35355Z" fill="white"/>
</svg>
