<svg width="14" height="15" viewBox="0 0 14 15" fill="none" xmlns="http://www.w3.org/2000/svg">
<mask id="mask0_7541_22315" style="mask-type:alpha" maskUnits="userSpaceOnUse" x="0" y="0" width="14" height="15">
<rect y="0.25" width="14" height="14" fill="#D9D9D9"/>
</mask>
<g mask="url(#mask0_7541_22315)">
<path d="M7.02156 2.82555C8.05212 2.82555 9.02376 3.04731 9.93648 3.49084C10.8492 3.93437 11.6095 4.57535 12.2173 5.4138C12.2947 5.5152 12.3195 5.60635 12.2917 5.68724C12.2639 5.76803 12.2161 5.83623 12.1485 5.89184C12.0809 5.94512 12.003 5.96874 11.9147 5.96271C11.8264 5.95669 11.7508 5.90895 11.6879 5.81951C11.1625 5.06817 10.4856 4.49369 9.6575 4.09605C8.82926 3.69841 7.95062 3.49842 7.02156 3.49609C6.09241 3.49376 5.21989 3.69258 4.404 4.09255C3.58811 4.49252 2.91606 5.06934 2.38785 5.82301C2.32019 5.92451 2.2411 5.98012 2.15058 5.98984C2.05997 5.99956 1.98088 5.97895 1.91331 5.92801C1.83592 5.87473 1.7876 5.80638 1.76835 5.72296C1.7491 5.63964 1.77098 5.5556 1.83398 5.47082C2.43209 4.63276 3.18741 3.9824 4.09994 3.51971C5.01247 3.05694 5.98634 2.82555 7.02156 2.82555ZM7.02156 4.20338C8.3364 4.20338 9.46301 4.64492 10.4014 5.52798C11.3398 6.41115 11.809 7.50043 11.809 8.79582C11.809 9.2936 11.6341 9.7117 11.2843 10.0501C10.9345 10.3887 10.5082 10.5579 10.0055 10.5579C9.50263 10.5579 9.07144 10.3916 8.71192 10.0589C8.35239 9.72619 8.17263 9.31212 8.17263 8.81667C8.17263 8.50517 8.06053 8.24238 7.83633 8.0283C7.61204 7.81421 7.34162 7.70717 7.02506 7.70717C6.70841 7.70717 6.43799 7.81421 6.21379 8.0283C5.9895 8.24238 5.87735 8.50517 5.87735 8.81667C5.87735 9.75282 6.14992 10.5369 6.69504 11.1688C7.24007 11.8008 7.9724 12.2373 8.89202 12.4784C8.99109 12.5052 9.05754 12.5573 9.09137 12.6347C9.12521 12.7121 9.13124 12.7943 9.10946 12.8813C9.08768 12.9587 9.04359 13.0258 8.97719 13.0826C8.91069 13.1393 8.82324 13.1567 8.71483 13.1349C7.65715 12.8892 6.80806 12.382 6.16756 11.6135C5.52706 10.8448 5.20681 9.91256 5.20681 8.81667C5.20681 8.31666 5.38415 7.89496 5.73881 7.55157C6.09348 7.20828 6.52223 7.03663 7.02506 7.03663C7.5278 7.03663 7.9565 7.20599 8.31117 7.54471C8.66583 7.88334 8.84317 8.30037 8.84317 8.79582C8.84317 9.10498 8.95774 9.36666 9.1869 9.58084C9.41595 9.79492 9.68881 9.90196 10.0055 9.90196C10.322 9.90196 10.5906 9.79492 10.8112 9.58084C11.0317 9.36666 11.1419 9.10498 11.1419 8.79582C11.1419 7.68661 10.7386 6.75323 9.93196 5.99567C9.1254 5.23812 8.15897 4.85934 7.03265 4.85934C5.90633 4.85934 4.94159 5.24103 4.13844 6.00442C3.33529 6.76781 2.93371 7.70153 2.93371 8.80559C2.93371 9.08083 2.95617 9.38878 3.00108 9.72944C3.046 10.0702 3.14298 10.4518 3.29202 10.8742C3.32585 10.9757 3.32401 11.0657 3.28648 11.1442C3.24895 11.2227 3.18663 11.2789 3.09952 11.3128C3.00784 11.3466 2.92088 11.3442 2.83863 11.3055C2.75647 11.2668 2.69615 11.1992 2.65765 11.1029C2.52115 10.7493 2.4213 10.3842 2.3581 10.0075C2.29491 9.63091 2.26331 9.23395 2.26331 8.81667C2.26331 7.51438 2.72949 6.4199 3.66185 5.53324C4.59422 4.64667 5.71412 4.20338 7.02156 4.20338ZM7.02506 1.40338C7.65195 1.40338 8.26304 1.47873 8.85833 1.62942C9.45372 1.78012 10.0297 1.9976 10.5862 2.28188C10.6877 2.3374 10.7475 2.4056 10.7655 2.48648C10.7836 2.56728 10.7758 2.64637 10.7419 2.72376C10.7058 2.80114 10.6478 2.86103 10.5681 2.90342C10.4885 2.94571 10.3954 2.9391 10.2888 2.88359C9.7782 2.61876 9.24883 2.41702 8.70069 2.27838C8.15255 2.13974 7.59401 2.07042 7.02506 2.07042C6.46117 2.07042 5.90642 2.13605 5.36081 2.2673C4.8152 2.39855 4.29448 2.60398 3.79865 2.88359C3.70687 2.9391 3.61572 2.95412 3.52521 2.92865C3.4346 2.90328 3.3664 2.84703 3.3206 2.75992C3.27938 2.67748 3.27078 2.59654 3.29479 2.51711C3.3189 2.43758 3.37451 2.37118 3.46163 2.3179C4.01074 2.01467 4.58644 1.78644 5.18873 1.63321C5.79112 1.47999 6.40323 1.40338 7.02506 1.40338ZM7.02506 5.61446C7.93156 5.61446 8.71051 5.92178 9.3619 6.53642C10.0133 7.15096 10.339 7.9041 10.339 8.79582C10.339 8.89955 10.3093 8.98399 10.25 9.04913C10.1907 9.11427 10.1092 9.14684 10.0055 9.14684C9.90901 9.14684 9.82876 9.11427 9.76469 9.04913C9.70052 8.98399 9.66844 8.89955 9.66844 8.79582C9.66844 8.08522 9.40793 7.48852 8.88692 7.00571C8.3659 6.52291 7.74529 6.28151 7.02506 6.28151C6.30241 6.28151 5.68485 6.52524 5.1724 7.01271C4.66004 7.50019 4.40385 8.10151 4.40385 8.81667C4.40385 9.5856 4.53297 10.2441 4.79119 10.7923C5.04951 11.3404 5.44 11.8904 5.96267 12.4422C6.03033 12.5099 6.06475 12.5879 6.06592 12.6762C6.06708 12.7643 6.03733 12.8411 5.97667 12.9064C5.909 12.9787 5.82699 13.0131 5.73065 13.0097C5.6342 13.0062 5.55219 12.9706 5.48463 12.9029C4.91101 12.3048 4.47628 11.6864 4.18044 11.0476C3.88469 10.409 3.73681 9.66533 3.73681 8.81667C3.73681 7.92038 4.05765 7.16258 4.69931 6.54328C5.34098 5.92407 6.11623 5.61446 7.02506 5.61446ZM7.01398 8.4623C7.11538 8.4623 7.19632 8.49613 7.25679 8.5638C7.31726 8.63137 7.3475 8.71104 7.3475 8.80282C7.3475 9.55055 7.6065 10.1479 8.1245 10.5948C8.6425 11.0417 9.255 11.2652 9.962 11.2652C10.0297 11.2652 10.1187 11.2592 10.229 11.2471C10.3395 11.2351 10.4519 11.2217 10.5662 11.2069C10.663 11.192 10.7465 11.2099 10.8167 11.2607C10.8868 11.3114 10.9293 11.3852 10.9442 11.4821C10.959 11.5737 10.9397 11.6505 10.8864 11.7123C10.8332 11.7742 10.7653 11.8171 10.6829 11.8413C10.5172 11.8899 10.3676 11.9178 10.234 11.925C10.1004 11.9321 10.0097 11.9356 9.962 11.9356C9.07115 11.9356 8.30149 11.6469 7.65302 11.0694C7.00465 10.4919 6.68046 9.73635 6.68046 8.80282C6.68046 8.71104 6.71065 8.63137 6.77102 8.5638C6.83149 8.49613 6.91248 8.4623 7.01398 8.4623Z" fill="#1C1B1F"/>
</g>
</svg>
