<svg width="18" height="18" viewBox="0 0 18 18" fill="none" xmlns="http://www.w3.org/2000/svg">
<g id="Menu icons">
<path id="Union" fill-rule="evenodd" clip-rule="evenodd" d="M16.2669 9.02431C16.2669 13.346 12.7635 16.8494 8.44179 16.8494C7.27934 16.8494 6.1761 16.5959 5.18431 16.1412L1.18187 17.1418C0.90723 17.2105 0.658457 16.9617 0.727118 16.6871L1.66434 12.9382C0.998057 11.7869 0.616699 10.4502 0.616699 9.02431C0.616699 4.70263 4.12011 1.19922 8.44179 1.19922C12.7635 1.19922 16.2669 4.70263 16.2669 9.02431ZM4.73511 7.77304C4.73511 7.31812 5.10389 6.94934 5.5588 6.94934H11.3247C11.7796 6.94934 12.1484 7.31812 12.1484 7.77304C12.1484 8.22795 11.7796 8.59673 11.3247 8.59673H5.5588C5.10389 8.59673 4.73511 8.22795 4.73511 7.77304ZM4.73505 11.068C4.73505 10.613 5.10383 10.2443 5.55874 10.2443H8.85352C9.30843 10.2443 9.67721 10.613 9.67721 11.068C9.67721 11.5229 9.30843 11.8917 8.85352 11.8917H5.55874C5.10383 11.8917 4.73505 11.5229 4.73505 11.068Z" fill="white"/>
</g>
</svg>
