<svg width="16" height="16" viewBox="0 0 16 16" fill="none" xmlns="http://www.w3.org/2000/svg">
<g id="notes">
<mask id="mask0_1473_73722" style="mask-type:alpha" maskUnits="userSpaceOnUse" x="0" y="0" width="16" height="16">
<rect id="Bounding box" width="16" height="16" fill="#D9D9D9"/>
</mask>
<g mask="url(#mask0_1473_73722)">
<path id="notes_2" d="M2.83337 11.7564C2.69171 11.7564 2.57296 11.7085 2.47712 11.6126C2.38129 11.5167 2.33337 11.3979 2.33337 11.2562C2.33337 11.1144 2.38129 10.9957 2.47712 10.9C2.57296 10.8043 2.69171 10.7564 2.83337 10.7564H9.16668C9.30834 10.7564 9.42709 10.8043 9.52293 10.9002C9.61876 10.9961 9.66668 11.1149 9.66668 11.2566C9.66668 11.3983 9.61876 11.5171 9.52293 11.6128C9.42709 11.7085 9.30834 11.7564 9.16668 11.7564H2.83337ZM2.83337 8.49997C2.69171 8.49997 2.57296 8.45204 2.47712 8.35617C2.38129 8.2603 2.33337 8.1415 2.33337 7.99977C2.33337 7.85804 2.38129 7.73931 2.47712 7.64359C2.57296 7.54787 2.69171 7.50001 2.83337 7.50001H13.1667C13.3083 7.50001 13.4271 7.54794 13.5229 7.64381C13.6188 7.73969 13.6667 7.85849 13.6667 8.00021C13.6667 8.14194 13.6188 8.26067 13.5229 8.35639C13.4271 8.45211 13.3083 8.49997 13.1667 8.49997H2.83337ZM2.83337 5.24357C2.69171 5.24357 2.57296 5.19564 2.47712 5.09976C2.38129 5.00389 2.33337 4.88509 2.33337 4.74336C2.33337 4.60164 2.38129 4.48291 2.47712 4.38719C2.57296 4.29146 2.69171 4.24359 2.83337 4.24359H13.1667C13.3083 4.24359 13.4271 4.29153 13.5229 4.38741C13.6188 4.48329 13.6667 4.60209 13.6667 4.74381C13.6667 4.88554 13.6188 5.00427 13.5229 5.09999C13.4271 5.19571 13.3083 5.24357 13.1667 5.24357H2.83337Z" fill="#BAC1C6"/>
</g>
</g>
</svg>
