<svg width="38" height="38" viewBox="0 0 38 38" fill="none" xmlns="http://www.w3.org/2000/svg">
    <g id="Property 1=Pause Normal">
        <path id="Pause"
            d="M19 3C10.15 3 3 10.15 3 19C3 27.85 10.15 35 19 35C27.85 35 35 27.85 35 19C35 10.15 27.8 3 19 3ZM17.25 23.3C17.25 24.25 16.5 25.05 15.5 25.05C14.55 25.05 13.75 24.3 13.75 23.3V14.65C13.75 13.7 14.5 12.9 15.5 12.9C16.45 12.9 17.25 13.65 17.25 14.65V23.3ZM24.2 23.3C24.2 24.25 23.45 25.05 22.45 25.05C21.5 25.05 20.7 24.3 20.7 23.3V14.65C20.7 13.7 21.45 12.9 22.45 12.9C23.4 12.9 24.2 13.65 24.2 14.65V23.3Z"
            fill="white" />
    </g>
</svg>
