<svg width="14" height="14" viewBox="0 0 14 14" fill="none" xmlns="http://www.w3.org/2000/svg">
<mask id="mask0_7640_2772" style="mask-type:alpha" maskUnits="userSpaceOnUse" x="0" y="0" width="14" height="14">
<rect width="14" height="14" fill="#D9D9D9"/>
</mask>
<g mask="url(#mask0_7640_2772)">
<path d="M3.51334 10.0871C4.00917 9.71924 4.54934 9.42869 5.13384 9.21548C5.71824 9.00237 6.34027 8.89581 6.99992 8.89581C7.65957 8.89581 8.2816 9.00237 8.866 9.21548C9.4505 9.42869 9.99067 9.71924 10.4865 10.0871C10.8491 9.68851 11.1365 9.2271 11.3485 8.70288C11.5606 8.17865 11.6666 7.61102 11.6666 6.99998C11.6666 5.70692 11.2121 4.60588 10.303 3.69685C9.39402 2.78783 8.29297 2.33331 6.99992 2.33331C5.70686 2.33331 4.60582 2.78783 3.69679 3.69685C2.78777 4.60588 2.33325 5.70692 2.33325 6.99998C2.33325 7.61102 2.43927 8.17865 2.65131 8.70288C2.86336 9.2271 3.1507 9.68851 3.51334 10.0871ZM6.99992 7.43748C6.46743 7.43748 6.01836 7.2546 5.65271 6.88885C5.28696 6.5232 5.10409 6.07413 5.10409 5.54165C5.10409 5.00916 5.28696 4.56009 5.65271 4.19444C6.01836 3.82869 6.46743 3.64581 6.99992 3.64581C7.5324 3.64581 7.98147 3.82869 8.34713 4.19444C8.71288 4.56009 8.89575 5.00916 8.89575 5.54165C8.89575 6.07413 8.71288 6.5232 8.34713 6.88885C7.98147 7.2546 7.5324 7.43748 6.99992 7.43748ZM6.99992 12.5416C6.2304 12.5416 5.50853 12.3969 4.83429 12.1075C4.16006 11.8181 3.57356 11.4239 3.07481 10.9251C2.57597 10.4263 2.18183 9.83984 1.8924 9.1656C1.60297 8.49137 1.45825 7.76949 1.45825 6.99998C1.45825 6.23047 1.60297 5.50859 1.8924 4.83435C2.18183 4.16012 2.57597 3.57363 3.07481 3.07488C3.57356 2.57603 4.16006 2.18189 4.83429 1.89246C5.50853 1.60303 6.2304 1.45831 6.99992 1.45831C7.76943 1.45831 8.49131 1.60303 9.16554 1.89246C9.83978 2.18189 10.4263 2.57603 10.925 3.07488C11.4239 3.57363 11.818 4.16012 12.1074 4.83435C12.3969 5.50859 12.5416 6.23047 12.5416 6.99998C12.5416 7.76949 12.3969 8.49137 12.1074 9.1656C11.818 9.83984 11.4239 10.4263 10.925 10.9251C10.4263 11.4239 9.83978 11.8181 9.16554 12.1075C8.49131 12.3969 7.76943 12.5416 6.99992 12.5416Z" fill="#1C1B1F"/>
</g>
</svg>
