<svg width="16" height="16" viewBox="0 0 16 16" fill="none" xmlns="http://www.w3.org/2000/svg">
<path d="M10.4997 6.12583L9.88301 6.02333C9.86812 6.11286 9.87292 6.20456 9.89705 6.29205C9.92119 6.37955 9.9641 6.46073 10.0228 6.52996C10.0815 6.5992 10.1545 6.65482 10.2369 6.69296C10.3192 6.7311 10.4089 6.75085 10.4997 6.75083V6.12583ZM1.33301 6.12583V5.50083C1.16725 5.50083 1.00828 5.56668 0.891066 5.68389C0.773856 5.8011 0.708008 5.96007 0.708008 6.12583H1.33301ZM2.99967 15.0842H12.4663V13.8342H2.99967V15.0842ZM13.4663 5.50083H10.4997V6.75083H13.4663V5.50083ZM11.1163 6.22833L11.788 2.19917L10.5547 1.99333L9.88301 6.02333L11.1163 6.22833ZM10.3497 0.500833H10.1713V1.75083H10.3488L10.3497 0.500833ZM7.57051 1.8925L5.47467 5.03667L6.51468 5.73L8.61051 2.58583L7.57051 1.8925ZM4.60801 5.50083H1.33301V6.75083H4.60801V5.50083ZM0.708008 6.12583V12.7925H1.95801V6.12583H0.708008ZM14.7138 13.2425L15.7138 8.2425L14.4888 7.99667L13.4888 12.9967L14.7138 13.2425ZM5.47467 5.03667C5.37959 5.1794 5.25073 5.29562 5.09955 5.37659C4.94836 5.45757 4.77951 5.49996 4.60801 5.5V6.75C5.37467 6.75 6.08967 6.3675 6.51468 5.73L5.47467 5.03667ZM11.788 2.19917C11.8227 1.99031 11.8116 1.77556 11.7553 1.57145C11.699 1.36735 11.5989 1.17794 11.4621 1.01641C11.3252 0.854873 11.1548 0.725078 10.9627 0.636044C10.7706 0.547009 10.5614 0.50087 10.3497 0.500833L10.3488 1.75083C10.379 1.75091 10.4097 1.75755 10.4371 1.7703C10.4645 1.78305 10.4888 1.8016 10.5083 1.82467C10.5278 1.84774 10.542 1.87477 10.55 1.90389C10.558 1.93302 10.5596 1.96354 10.5547 1.99333L11.788 2.19917ZM13.4663 6.75C14.1247 6.75 14.6163 7.35167 14.488 7.99583L15.7138 8.24167C15.7802 7.90924 15.7719 7.56542 15.6897 7.23657C15.6074 6.90772 15.4533 6.60121 15.2383 6.33913C15.0233 6.07705 14.7529 5.86592 14.4465 5.72096C14.1401 5.576 13.8053 5.50082 13.4663 5.50083V6.75ZM12.4663 15.0842C12.9961 15.0843 13.5095 14.9 13.9193 14.5642C14.329 14.2285 14.6098 13.7611 14.7138 13.2417L13.4888 12.9958C13.4416 13.2322 13.3139 13.4448 13.1274 13.5975C12.941 13.7502 12.7073 13.8344 12.4663 13.8342V15.0842ZM10.1713 0.500833C9.6569 0.500871 9.15042 0.627079 8.69686 0.86985C8.2433 1.11262 7.85669 1.46361 7.57134 1.89167L8.61051 2.58583C8.78179 2.32888 9.01389 2.11738 9.28618 1.97171C9.55848 1.82604 9.86253 1.75072 10.1713 1.75083V0.500833ZM2.99967 13.8342C2.42467 13.8342 1.95801 13.3675 1.95801 12.7925H0.708008C0.708008 13.4003 0.94945 13.9832 1.37922 14.413C1.80899 14.8427 2.39189 15.0842 2.99967 15.0842V13.8342Z" fill="#909BAA"/>
<path d="M4.66602 6.125V14.4583" stroke="#909BAA" stroke-width="1.25"/>
</svg>
