<svg width="24" height="24" viewBox="0 0 24 24" fill="none" xmlns="http://www.w3.org/2000/svg">
<g opacity="0.4">
<mask id="mask0_5162_13105" style="mask-type:alpha" maskUnits="userSpaceOnUse" x="0" y="0" width="24" height="24">
<rect width="24" height="24" fill="#D9D9D9"/>
</mask>
<g mask="url(#mask0_5162_13105)">
<path d="M19.7615 21.8691L15.7154 17.8537C15.1256 18.0819 14.5195 18.2467 13.8971 18.348C13.2747 18.4493 12.6423 18.4999 12 18.4999C9.89486 18.4999 7.96698 17.94 6.21635 16.8201C4.46572 15.7002 3.07822 14.2243 2.05385 12.3922C1.97052 12.2486 1.90963 12.1025 1.87118 11.9538C1.83271 11.8051 1.81348 11.6538 1.81348 11.4999C1.81348 11.3461 1.83431 11.1932 1.87598 11.0413C1.91764 10.8894 1.98014 10.7448 2.06348 10.6076C2.46219 9.9448 2.88591 9.30345 3.33463 8.68357C3.78336 8.0637 4.30516 7.51531 4.90003 7.0384L2.13078 4.2384L3.18463 3.18457L20.8153 20.8153L19.7615 21.8691ZM12 15.5768C12.2218 15.5768 12.4336 15.5637 12.6356 15.5374C12.8375 15.5111 13.0346 15.4537 13.2269 15.3653L8.13463 10.273C8.05258 10.4653 7.99681 10.6624 7.96733 10.8643C7.93783 11.0663 7.92308 11.2781 7.92308 11.4999C7.92308 12.6345 8.31891 13.5977 9.11058 14.3893C9.90224 15.181 10.8654 15.5768 12 15.5768ZM18.9538 16.0845L15.8173 12.973C15.9019 12.7345 15.9663 12.4941 16.0105 12.2518C16.0548 12.0095 16.0769 11.7589 16.0769 11.4999C16.0769 10.3653 15.681 9.40219 14.8894 8.61052C14.0977 7.81885 13.1346 7.42302 12 7.42302C11.741 7.42302 11.4904 7.44674 11.2481 7.49417C11.0058 7.5416 10.7686 7.61917 10.5366 7.72687L8.03463 5.23457C8.67051 4.98329 9.3189 4.79803 9.9798 4.6788C10.6407 4.55956 11.3141 4.49995 12 4.49995C14.1115 4.49995 16.0484 5.06245 17.8105 6.18745C19.5727 7.31245 20.9628 8.79738 21.9807 10.6422C22.0576 10.7692 22.1169 10.9054 22.1586 11.0509C22.2003 11.1964 22.2211 11.3461 22.2211 11.4999C22.2211 11.6538 22.2028 11.8034 22.1663 11.9489C22.1297 12.0945 22.073 12.2307 21.9961 12.3576C21.6089 13.0832 21.1673 13.7605 20.6711 14.3893C20.175 15.0182 19.6025 15.5832 18.9538 16.0845ZM14.6846 11.8499L11.675 8.84992C12.0955 8.76659 12.5051 8.79671 12.9038 8.9403C13.3025 9.0839 13.6468 9.30761 13.9365 9.61145C14.2327 9.91145 14.4465 10.2563 14.5779 10.6461C14.7093 11.0358 14.7449 11.4371 14.6846 11.8499Z" fill="#909BAA"/>
</g>
</g>
</svg>
