<svg width="16" height="16" viewBox="0 0 16 16" fill="none" xmlns="http://www.w3.org/2000/svg">
    <path d="M7.38474 15.5C7.13341 15.5 6.92316 15.4153 6.75399 15.246C6.58466 15.0768 6.49999 14.8666 6.49999 14.6152V8.827L0.901988 1.7155C0.709655 1.459 0.681738 1.19233 0.818238 0.9155C0.954905 0.6385 1.18541 0.5 1.50974 0.5H14.4902C14.8146 0.5 15.0451 0.6385 15.1817 0.9155C15.3182 1.19233 15.2903 1.459 15.098 1.7155L9.49999 8.827V14.6152C9.49999 14.8666 9.41532 15.0768 9.24599 15.246C9.07682 15.4153 8.86657 15.5 8.61524 15.5H7.38474Z" fill="#6B7A8D"/>
</svg>
