<svg width="16" height="16" viewBox="0 0 16 16" fill="none" xmlns="http://www.w3.org/2000/svg">
<g id="sensors">
<mask id="mask0_1506_161" style="mask-type:alpha" maskUnits="userSpaceOnUse" x="0" y="0" width="16" height="16">
<rect id="Bounding box" width="16" height="16" fill="#D9D9D9"/>
</mask>
<g mask="url(#mask0_1506_161)">
<path id="sensors_2" d="M5 8.97359C4.73205 8.97359 4.49839 8.87655 4.29903 8.68246C4.09968 8.48836 4 8.26087 4 8C4 7.73913 4.09968 7.51164 4.29903 7.31754C4.49839 7.12345 4.73205 7.02641 5 7.02641C5.26795 7.02641 5.50161 7.12345 5.70097 7.31754C5.90032 7.51164 6 7.73913 6 8C6 8.26087 5.90032 8.48836 5.70097 8.68246C5.50161 8.87655 5.26795 8.97359 5 8.97359ZM8.17885 11.0949C8.08527 11.0038 8.03431 10.893 8.02597 10.7626C8.01764 10.6321 8.05642 10.5076 8.1423 10.389C8.40257 10.0595 8.61058 9.69099 8.76635 9.28346C8.92212 8.87591 9 8.44809 9 8C9 7.5519 8.92212 7.12408 8.76635 6.71654C8.61058 6.30901 8.40257 5.94048 8.1423 5.61095C8.05642 5.49239 8.01539 5.37006 8.01922 5.24398C8.02308 5.11792 8.07821 5.00308 8.18463 4.89948C8.29488 4.79214 8.41699 4.7394 8.55097 4.74127C8.68494 4.74315 8.79488 4.79964 8.88077 4.91072C9.23077 5.33136 9.50482 5.80567 9.7029 6.33365C9.90097 6.86165 10 7.41709 10 8C10 8.5829 9.90097 9.13648 9.7029 9.66073C9.50482 10.185 9.23077 10.6593 8.88077 11.0837C8.79488 11.1948 8.68397 11.2512 8.54807 11.2531C8.41217 11.255 8.2891 11.2022 8.17885 11.0949ZM11.0096 13.8509C10.916 13.7598 10.8663 13.6481 10.8606 13.5158C10.8548 13.3834 10.8987 13.2599 10.9923 13.1451C11.6154 12.4548 12.1058 11.6737 12.4635 10.8019C12.8212 9.93002 13 8.99606 13 8C13 7.00394 12.8221 6.06998 12.4663 5.19813C12.1106 4.32626 11.6212 3.5452 10.9981 2.85494C10.9045 2.74012 10.8555 2.62061 10.851 2.49641C10.8465 2.37222 10.8994 2.25644 11.0096 2.14908C11.1071 2.05422 11.225 2.00461 11.3635 2.00025C11.5019 1.99588 11.6179 2.04924 11.7115 2.16033C12.4244 2.9417 12.984 3.82667 13.3904 4.81524C13.7968 5.80381 14 6.86539 14 8C14 9.13086 13.7968 10.1915 13.3904 11.182C12.984 12.1724 12.4244 13.0583 11.7115 13.8397C11.6179 13.9508 11.5019 14.0041 11.3635 13.9998C11.225 13.9954 11.1071 13.9458 11.0096 13.8509Z" fill="white"/>
</g>
</g>
</svg>
