<svg width="20" height="20" viewBox="0 0 20 20" fill="none" xmlns="http://www.w3.org/2000/svg">
<g id="shield_person">
<mask id="mask0_1543_22988" style="mask-type:alpha" maskUnits="userSpaceOnUse" x="0" y="0" width="20" height="20">
<rect id="Bounding box" width="20" height="20" fill="#D9D9D9"/>
</mask>
<g mask="url(#mask0_1543_22988)">
<path id="shield_person_2" d="M9.99998 10.6249C10.7521 10.6249 11.3915 10.3616 11.9182 9.83486C12.4449 9.30816 12.7083 8.66875 12.7083 7.91661C12.7083 7.16447 12.4449 6.52505 11.9182 5.99836C11.3915 5.47165 10.7521 5.20829 9.99998 5.20829C9.24784 5.20829 8.60842 5.47165 8.08173 5.99836C7.55502 6.52505 7.29167 7.16447 7.29167 7.91661C7.29167 8.66875 7.55502 9.30816 8.08173 9.83486C8.60842 10.3616 9.24784 10.6249 9.99998 10.6249ZM9.99998 17.9005C8.08973 17.376 6.57051 16.3049 5.44231 14.6874C4.3141 13.0699 3.75 11.2574 3.75 9.24994V4.45509L9.99998 2.11536L16.25 4.45509V9.24994C16.25 11.2574 15.6859 13.0699 14.5576 14.6874C13.4295 16.3049 11.9102 17.376 9.99998 17.9005ZM9.99998 16.5833C10.782 16.3301 11.4823 15.9422 12.1009 15.4198C12.7195 14.8974 13.2569 14.298 13.7131 13.6218C13.1373 13.3269 12.5371 13.1009 11.9126 12.9439C11.2882 12.7868 10.6506 12.7083 9.99998 12.7083C9.34934 12.7083 8.71179 12.7868 8.08733 12.9439C7.46286 13.1009 6.8627 13.3269 6.28685 13.6218C6.74305 14.298 7.28044 14.8974 7.89902 15.4198C8.51762 15.9422 9.21794 16.3301 9.99998 16.5833Z" fill="white"/>
</g>
</g>
</svg>
