<svg width="20" height="20" viewBox="0 0 20 20" fill="none" xmlns="http://www.w3.org/2000/svg">
<g id="Menu icons">
<path id="Subtract" d="M9.56745 16.1438C9.44134 16.1438 9.31606 16.1269 9.19162 16.0931C9.06718 16.0595 8.95315 16.0133 8.84954 15.9546C8.2587 15.602 7.64141 15.3367 6.99766 15.159C6.35405 14.981 5.68822 14.8921 5.00016 14.8921C4.49169 14.8921 3.99225 14.9484 3.50183 15.061C3.01141 15.1738 2.53863 15.3397 2.0835 15.5588C1.78655 15.6954 1.50398 15.6751 1.23579 15.4977C0.967593 15.3205 0.833496 15.0695 0.833496 14.7446V5.71272C0.833496 5.53313 0.881066 5.36723 0.976204 5.21501C1.0712 5.06279 1.20315 4.95195 1.37204 4.88251C1.93607 4.60792 2.52391 4.40202 3.13558 4.2648C3.74725 4.12744 4.36877 4.05876 5.00016 4.05876C5.811 4.05876 6.60051 4.17362 7.3687 4.40334C8.1369 4.63306 8.87516 4.95626 9.5835 5.37292V14.9433C10.2866 14.4989 11.0283 14.1709 11.8087 13.9594C12.5891 13.7479 13.3752 13.6421 14.1668 13.6421C14.6454 13.6421 15.0816 13.6717 15.4754 13.731C15.869 13.7904 16.3249 13.9006 16.8431 14.0619C16.9018 14.078 16.9566 14.0794 17.0075 14.066C17.0581 14.0526 17.0835 14.0085 17.0835 13.9338V4.5748C17.2277 4.61758 17.3684 4.66515 17.5058 4.71751C17.643 4.76987 17.7768 4.83556 17.9072 4.91459C18.0493 4.98404 18.1559 5.08549 18.2268 5.21897C18.2979 5.35258 18.3335 5.49577 18.3335 5.64855V14.7285C18.3335 15.0534 18.1954 15.3031 17.9191 15.4777C17.643 15.6524 17.3484 15.6741 17.0354 15.5427C16.5856 15.329 16.1196 15.1671 15.6372 15.0571C15.1549 14.9471 14.6647 14.8921 14.1668 14.8921C13.4735 14.8921 12.7996 14.981 12.1452 15.159C11.4909 15.3367 10.8683 15.602 10.2775 15.9546C10.1738 16.0133 10.0611 16.0595 9.93933 16.0931C9.81752 16.1269 9.69357 16.1438 9.56745 16.1438ZM11.8895 12.2319C11.7613 12.3462 11.6227 12.3692 11.4737 12.3008C11.3247 12.2324 11.2502 12.1132 11.2502 11.9433V5.46751C11.2502 5.41723 11.2606 5.36778 11.2814 5.31917C11.3022 5.27056 11.3309 5.22813 11.3672 5.19188L14.7645 1.79438C14.8927 1.66619 15.0335 1.63549 15.1868 1.7023C15.3402 1.76897 15.4168 1.89153 15.4168 2.07001V8.8873C15.4168 8.95133 15.4043 9.00633 15.3791 9.0523C15.354 9.09827 15.3233 9.13945 15.287 9.17584L11.8895 12.2319Z" fill="white"/>
</g>
</svg>
