<svg width="16" height="16" viewBox="0 0 16 16" fill="none" xmlns="http://www.w3.org/2000/svg">
<g id="Video">
<mask id="mask0_1506_153" style="mask-type:alpha" maskUnits="userSpaceOnUse" x="0" y="0" width="16" height="16">
<rect id="Bounding box" width="16" height="16" fill="#D9D9D9"/>
</mask>
<g mask="url(#mask0_1506_153)">
<path id="Subtract" fill-rule="evenodd" clip-rule="evenodd" d="M14.3782 3.03719C15.0725 3.22309 15.6201 3.76987 15.8053 4.46427C16.1429 5.72367 16.1429 8.35001 16.1429 8.35001C16.1429 8.35001 16.1429 10.9773 15.8053 12.2358C15.6201 12.9302 15.0725 13.4769 14.3782 13.6628C13.1197 14 8.07143 14 8.07143 14C8.07143 14 3.02403 14 1.76471 13.6628C1.07038 13.4769 0.522808 12.9302 0.337533 12.2358C0 10.9764 0 8.35001 0 8.35001C0 8.35001 0 5.72367 0.337533 4.46427C0.522808 3.76987 1.07038 3.22309 1.76471 3.03719C3.02312 2.70001 8.07143 2.70001 8.07143 2.70001C8.07143 2.70001 13.1197 2.70001 14.3782 3.03719ZM10.4931 8.35003L6.45735 5.9286V10.7715L10.4931 8.35003Z" fill="white"/>
</g>
</g>
</svg>
