<svg width="14" height="14" viewBox="0 0 14 14" fill="none" xmlns="http://www.w3.org/2000/svg">
<mask id="mask0_9529_44" style="mask-type:alpha" maskUnits="userSpaceOnUse" x="0" y="0" width="14" height="14">
<rect width="14" height="14" fill="#D9D9D9"/>
</mask>
<g mask="url(#mask0_9529_44)">
<path d="M3.15605 6.15286H2.69186C2.5577 6.15286 2.44638 6.10892 2.3579 6.02103C2.26953 5.93314 2.22534 5.82196 2.22534 5.68751C2.22534 5.55305 2.26929 5.44187 2.35718 5.35399C2.44506 5.2661 2.55624 5.22215 2.6907 5.22215H3.61732C3.7511 5.22215 3.86222 5.2661 3.9507 5.35399C4.03917 5.44187 4.0834 5.55305 4.0834 5.68751V8.31601C4.0834 8.4494 4.0398 8.55974 3.95259 8.64705C3.86529 8.73426 3.75494 8.77786 3.62155 8.77786C3.48816 8.77786 3.37723 8.73392 3.28876 8.64603C3.20029 8.55814 3.15605 8.44696 3.15605 8.31251V6.15286ZM5.24307 8.31251V7.31953C5.24307 7.14637 5.30165 7.00122 5.4188 6.88407C5.53595 6.76692 5.68111 6.70834 5.85426 6.70834H6.99307V6.15286H5.70843C5.57406 6.15286 5.46289 6.10892 5.3749 6.02103C5.28702 5.93314 5.24307 5.82196 5.24307 5.68751C5.24307 5.55305 5.28702 5.44187 5.3749 5.35399C5.46289 5.2661 5.57406 5.22215 5.70843 5.22215H7.31259C7.48584 5.22215 7.63104 5.28073 7.7482 5.39788C7.86535 5.51503 7.92392 5.66019 7.92392 5.83334V6.68049C7.92392 6.85364 7.86535 6.99879 7.7482 7.11594C7.63104 7.2331 7.48584 7.29167 7.31259 7.29167H6.17393V7.84715H7.45842C7.59288 7.84715 7.70411 7.8911 7.79209 7.97899C7.87998 8.06687 7.92392 8.17805 7.92392 8.31251C7.92392 8.44696 7.87998 8.55814 7.79209 8.64603C7.70411 8.73392 7.59288 8.77786 7.45842 8.77786H5.70843C5.57406 8.77786 5.46289 8.73392 5.3749 8.64603C5.28702 8.55814 5.24307 8.44696 5.24307 8.31251ZM10.8719 8.77786H9.26778C9.13332 8.77786 9.02215 8.73392 8.93426 8.64603C8.84637 8.55814 8.80243 8.44696 8.80243 8.31251C8.80243 8.17805 8.84637 8.06687 8.93426 7.97899C9.02215 7.8911 9.13332 7.84715 9.26778 7.84715H10.5524V7.29167H9.67743C9.59965 7.29167 9.53159 7.26251 9.47326 7.20417C9.41493 7.14584 9.38576 7.07778 9.38576 7.00001C9.38576 6.92223 9.41493 6.85417 9.47326 6.79584C9.53159 6.73751 9.59965 6.70834 9.67743 6.70834H10.5524V6.15286H9.26778C9.13332 6.15286 9.02215 6.10892 8.93426 6.02103C8.84637 5.93314 8.80243 5.82196 8.80243 5.68751C8.80243 5.55305 8.84637 5.44187 8.93426 5.35399C9.02215 5.2661 9.13332 5.22215 9.26778 5.22215H10.8719C11.0451 5.22215 11.1903 5.28073 11.3074 5.39788C11.4246 5.51503 11.4831 5.66019 11.4831 5.83334V8.16667C11.4831 8.33983 11.4246 8.48498 11.3074 8.60213C11.1903 8.71928 11.0451 8.77786 10.8719 8.77786Z" fill="#1C1B1F"/>
</g>
</svg>
