<svg width="14" height="14" viewBox="0 0 14 14" fill="none" xmlns="http://www.w3.org/2000/svg">
<mask id="mask0_9529_41" style="mask-type:alpha" maskUnits="userSpaceOnUse" x="0" y="0" width="14" height="14">
<rect width="14" height="14" fill="#D9D9D9"/>
</mask>
<g mask="url(#mask0_9529_41)">
<path d="M5.84372 8.77786C5.75427 8.77786 5.67689 8.74524 5.61155 8.68001C5.54632 8.61467 5.5137 8.53728 5.5137 8.44784V5.55567C5.5137 5.46672 5.54632 5.38889 5.61155 5.32219C5.67689 5.2555 5.75427 5.22215 5.84372 5.22215H7.87489C8.04804 5.22215 8.19319 5.28073 8.31034 5.39788C8.4275 5.51503 8.48607 5.66019 8.48607 5.83334V6.38882C8.48607 6.56197 8.4275 6.70712 8.31034 6.82428C8.19319 6.94143 8.04804 7.00001 7.87489 7.00001C8.04804 7.00001 8.19319 7.05858 8.31034 7.17574C8.4275 7.29289 8.48607 7.43804 8.48607 7.61119V8.16667C8.48607 8.33983 8.4275 8.48498 8.31034 8.60213C8.19319 8.71928 8.04804 8.77786 7.87489 8.77786H5.84372ZM6.44441 6.56251H7.55537V6.15286H6.44441V6.56251ZM6.44441 7.84715H7.55537V7.43751H6.44441V7.84715ZM2.13153 8.77786C2.00057 8.77786 1.89086 8.73367 1.80239 8.6453C1.71391 8.55683 1.66968 8.44706 1.66968 8.31601V5.83334C1.66968 5.66019 1.72825 5.51503 1.84541 5.39788C1.96256 5.28073 2.10771 5.22215 2.28087 5.22215H4.03087C4.20305 5.22215 4.34742 5.28073 4.46399 5.39788C4.58046 5.51503 4.6387 5.66019 4.6387 5.83334V8.31601C4.6387 8.4494 4.59471 8.55974 4.50672 8.64705C4.41883 8.73426 4.30766 8.77786 4.1732 8.77786C4.04224 8.77786 3.93252 8.73367 3.84405 8.6453C3.75558 8.55683 3.71134 8.44706 3.71134 8.31601V7.90286H2.59703V8.31601C2.59703 8.4494 2.55304 8.55974 2.46505 8.64705C2.37716 8.73426 2.26599 8.77786 2.13153 8.77786ZM2.59703 6.97215H3.71134V6.15286H2.59703V6.97215ZM9.96891 8.77786C9.79673 8.77786 9.65235 8.71928 9.53578 8.60213C9.41931 8.48498 9.36107 8.33983 9.36107 8.16667V5.83334C9.36107 5.66019 9.41931 5.51503 9.53578 5.39788C9.65235 5.28073 9.79673 5.22215 9.96891 5.22215H11.7189C11.8921 5.22215 12.0372 5.28073 12.1544 5.39788C12.2715 5.51503 12.3301 5.66019 12.3301 5.83334V6.15636C12.3301 6.28985 12.2862 6.40019 12.1983 6.4874C12.1104 6.57471 11.9992 6.61836 11.8647 6.61836C11.7313 6.61836 11.6209 6.57437 11.5337 6.48638C11.4464 6.39849 11.4027 6.28732 11.4027 6.15286H10.2884V7.84715H11.4027C11.4027 7.7161 11.447 7.60633 11.5354 7.51786C11.6239 7.42939 11.7343 7.38515 11.8665 7.38515C11.9986 7.38515 12.1089 7.42881 12.1974 7.51611C12.2859 7.60332 12.3301 7.71367 12.3301 7.84715V8.16667C12.3301 8.33983 12.2715 8.48498 12.1544 8.60213C12.0372 8.71928 11.8921 8.77786 11.7189 8.77786H9.96891Z" fill="#1C1B1F"/>
</g>
</svg>
