<svg width="14" height="14" viewBox="0 0 14 14" fill="none" xmlns="http://www.w3.org/2000/svg">
<mask id="mask0_9529_52" style="mask-type:alpha" maskUnits="userSpaceOnUse" x="0" y="0" width="14" height="14">
<rect width="14" height="14" fill="#D9D9D9"/>
</mask>
<g mask="url(#mask0_9529_52)">
<path d="M4.40869 12.5417C3.91587 12.5417 3.49538 12.3676 3.14723 12.0194C2.79908 11.6713 2.625 11.2508 2.625 10.758V3.35416C2.625 2.8277 2.80933 2.38009 3.178 2.01133C3.54676 1.64266 3.99437 1.45833 4.52083 1.45833H10.3205C10.6114 1.45833 10.8599 1.56134 11.066 1.76735C11.272 1.97346 11.375 2.22196 11.375 2.51285V9.41529C11.375 9.53341 11.3436 9.63977 11.2808 9.73437C11.218 9.82897 11.1353 9.89907 11.0329 9.94466C10.8631 10.0052 10.7262 10.1096 10.6222 10.2576C10.5183 10.4057 10.4663 10.5725 10.4663 10.758C10.4663 10.9397 10.5174 11.107 10.6194 11.2601C10.7215 11.413 10.8574 11.5167 11.0272 11.5713C11.1274 11.6087 11.2105 11.6639 11.2763 11.7368C11.3421 11.8097 11.375 11.8993 11.375 12.0054V12.0951C11.375 12.2193 11.3331 12.3248 11.2493 12.4116C11.1656 12.4983 11.0617 12.5417 10.9375 12.5417H4.40869ZM6.13506 6.53668H7.85035L8.14202 7.33658C8.16147 7.39336 8.19326 7.43745 8.2374 7.46885C8.28144 7.50025 8.33491 7.51595 8.39781 7.51595C8.49572 7.51595 8.57218 7.4758 8.62721 7.39549C8.68214 7.31509 8.69089 7.23075 8.65346 7.14247L7.38135 3.75797C7.36191 3.6974 7.32676 3.65049 7.27592 3.61724C7.22507 3.58399 7.1664 3.56737 7.0999 3.56737H6.87663C6.81003 3.56737 6.75131 3.58399 6.70046 3.61724C6.64961 3.65049 6.61447 3.6974 6.59502 3.75797L5.32292 7.14583C5.28549 7.2378 5.29579 7.32248 5.35383 7.39987C5.41178 7.47726 5.4897 7.51595 5.5876 7.51595C5.65051 7.51595 5.70398 7.50025 5.74802 7.46885C5.79216 7.43745 5.82395 7.39336 5.8434 7.33658L6.13506 6.53668ZM6.31677 6.01737L6.98206 4.19095H7.00904L7.6596 6.01737H6.31677ZM4.40869 11.6667H9.8595C9.77492 11.5342 9.7091 11.3939 9.66204 11.2455C9.61489 11.097 9.59131 10.9345 9.59131 10.758C9.59131 10.5912 9.61338 10.4312 9.65752 10.2779C9.70166 10.1246 9.76899 9.9817 9.8595 9.84929H4.40869C4.14842 9.84929 3.93191 9.9381 3.75915 10.1157C3.58638 10.2933 3.5 10.5074 3.5 10.758C3.5 11.0182 3.58638 11.2348 3.75915 11.4075C3.93191 11.5803 4.14842 11.6667 4.40869 11.6667Z" fill="#1C1B1F"/>
</g>
</svg>
