<svg width="14" height="14" viewBox="0 0 14 14" fill="none" xmlns="http://www.w3.org/2000/svg">
<mask id="mask0_9529_16" style="mask-type:alpha" maskUnits="userSpaceOnUse" x="0" y="0" width="14" height="14">
<rect width="14" height="14" fill="#D9D9D9"/>
</mask>
<g mask="url(#mask0_9529_16)">
<path d="M2.04175 7.58334V3.09619C2.04175 2.80151 2.14383 2.55209 2.348 2.34792C2.55216 2.14376 2.80159 2.04167 3.09627 2.04167H6.41675V7.58334H2.04175ZM7.58342 2.04167H10.9039C11.1986 2.04167 11.448 2.14376 11.6522 2.34792C11.8563 2.55209 11.9584 2.80214 11.9584 3.09809V5.25001H7.58342V2.04167ZM7.58342 11.9583V6.41667H11.9584V10.9038C11.9584 11.1985 11.8563 11.4479 11.6522 11.6521C11.448 11.8563 11.1986 11.9583 10.9039 11.9583H7.58342ZM2.04175 8.75001H6.41675V11.9583H3.09627C2.80159 11.9583 2.55216 11.8563 2.348 11.6521C2.14383 11.4479 2.04175 11.1979 2.04175 10.9019V8.75001Z" fill="#1C1B1F"/>
<path d="M2.04175 7.58334V3.09619C2.04175 2.80151 2.14383 2.55209 2.348 2.34792C2.55216 2.14376 2.80159 2.04167 3.09627 2.04167H6.41675V7.58334H2.04175ZM7.58342 2.04167H10.9039C11.1986 2.04167 11.448 2.14376 11.6522 2.34792C11.8563 2.55209 11.9584 2.80214 11.9584 3.09809V5.25001H7.58342V2.04167ZM7.58342 11.9583V6.41667H11.9584V10.9038C11.9584 11.1985 11.8563 11.4479 11.6522 11.6521C11.448 11.8563 11.1986 11.9583 10.9039 11.9583H7.58342ZM2.04175 8.75001H6.41675V11.9583H3.09627C2.80159 11.9583 2.55216 11.8563 2.348 11.6521C2.14383 11.4479 2.04175 11.1979 2.04175 10.9019V8.75001Z" fill="#1C1B1F"/>
</g>
</svg>
