<svg width="14" height="14" viewBox="0 0 14 14" fill="none" xmlns="http://www.w3.org/2000/svg">
<path d="M10.4999 1.16667H3.49992C2.85825 1.16667 2.33325 1.69167 2.33325 2.33334V11.6667C2.33325 12.3083 2.85825 12.8333 3.49992 12.8333H10.4999C11.1416 12.8333 11.6666 12.3083 11.6666 11.6667V2.33334C11.6666 1.69167 11.1416 1.16667 10.4999 1.16667ZM10.4999 4.66667H3.49992V2.33334H10.4999V4.66667ZM5.24992 7.00001H4.08325V5.83334H5.24992V7.00001ZM7.58325 7.00001H6.41658V5.83334H7.58325V7.00001ZM5.24992 9.33334H4.08325V8.16667H5.24992V9.33334ZM7.58325 9.33334H6.41658V8.16667H7.58325V9.33334ZM5.24992 11.6667H4.08325V10.5H5.24992V11.6667ZM7.58325 11.6667H6.41658V10.5H7.58325V11.6667ZM9.91658 7.00001H8.74992V5.83334H9.91658V7.00001ZM9.91658 9.33334H8.74992V8.16667H9.91658V9.33334ZM9.91658 11.6667H8.74992V10.5H9.91658V11.6667Z" fill="#1C1B1F"/>
<path d="M9.91667 2.91667H8.75V4.08334H9.91667V2.91667Z" fill="#1C1B1F"/>
</svg>
