<svg width="14" height="14" viewBox="0 0 14 14" fill="none" xmlns="http://www.w3.org/2000/svg">
<mask id="mask0_9529_21" style="mask-type:alpha" maskUnits="userSpaceOnUse" x="0" y="0" width="14" height="14">
<rect width="14" height="14" fill="#D9D9D9"/>
</mask>
<g mask="url(#mask0_9529_21)">
<path d="M3.50065 13.2708C3.05518 13.2708 2.67635 13.1149 2.36417 12.8031C2.05189 12.4913 1.89575 12.1128 1.89575 11.6674C1.89575 11.2219 2.05174 10.8431 2.36373 10.5309C2.67562 10.2186 3.0544 10.0625 3.50006 10.0625C3.6249 10.0625 3.74749 10.078 3.86786 10.109C3.98831 10.1401 4.10202 10.1818 4.20896 10.2341L5.36542 8.79491C5.12314 8.53086 4.95602 8.23545 4.86404 7.90868C4.77207 7.58182 4.75336 7.25311 4.8079 6.92256L3.12746 6.3662C2.98085 6.60177 2.78811 6.79058 2.54923 6.93262C2.31036 7.07476 2.04392 7.14583 1.74992 7.14583C1.30435 7.14583 0.925571 6.98993 0.613585 6.67814C0.301696 6.36635 0.145752 5.98777 0.145752 5.54239C0.145752 5.09692 0.301648 4.71809 0.613439 4.40591C0.925231 4.09363 1.30381 3.93749 1.74919 3.93749C2.19466 3.93749 2.57349 4.09344 2.88567 4.40533C3.19795 4.71731 3.35409 5.09609 3.35409 5.54166C3.35409 5.57608 3.35316 5.60486 3.35131 5.62799C3.34937 5.65123 3.3484 5.67442 3.3484 5.69756L5.02329 6.27987C5.1841 5.98218 5.40494 5.72677 5.68581 5.51366C5.96659 5.30055 6.28869 5.16371 6.65211 5.10314V3.3126C6.27673 3.22442 5.97349 3.03464 5.7424 2.74327C5.5113 2.45199 5.39575 2.12012 5.39575 1.74766C5.39575 1.30423 5.55165 0.926425 5.86344 0.614245C6.17523 0.301967 6.55381 0.145828 6.99919 0.145828C7.44466 0.145828 7.82349 0.301773 8.13567 0.613662C8.44795 0.925648 8.60408 1.30443 8.60408 1.74999C8.60408 2.1209 8.48703 2.45199 8.25292 2.74327C8.0189 3.03464 7.71718 3.22442 7.34773 3.3126V5.10314C7.71115 5.16371 8.03232 5.30055 8.31125 5.51366C8.59018 5.72677 8.81195 5.98218 8.97654 6.27987L10.6514 5.69756C10.6476 5.67063 10.6458 5.64652 10.6458 5.62522V5.54166C10.6458 5.09609 10.8016 4.71731 11.1134 4.40533C11.4252 4.09344 11.8038 3.93749 12.2492 3.93749C12.6947 3.93749 13.0735 4.09339 13.3857 4.40518C13.6979 4.71697 13.8541 5.09556 13.8541 5.54093C13.8541 5.9864 13.6981 6.36523 13.3863 6.67741C13.0743 6.98969 12.6955 7.14583 12.2499 7.14583C11.9571 7.14583 11.6894 7.07476 11.447 6.93262C11.2045 6.79058 11.013 6.60177 10.8724 6.3662L9.19194 6.92256C9.24648 7.25311 9.22777 7.58031 9.13579 7.90416C9.04382 8.22801 8.8767 8.52303 8.63442 8.78922L9.79088 10.2196C9.89782 10.1709 10.0115 10.1326 10.132 10.1046C10.2523 10.0765 10.3749 10.0625 10.4998 10.0625C10.9454 10.0625 11.3242 10.2184 11.6361 10.5302C11.9481 10.842 12.1041 11.2206 12.1041 11.6659C12.1041 12.1114 11.9482 12.4902 11.6364 12.8024C11.3246 13.1147 10.946 13.2708 10.5006 13.2708C10.0552 13.2708 9.67635 13.1149 9.36417 12.803C9.05189 12.491 8.89575 12.1122 8.89575 11.6667C8.89575 11.4827 8.9255 11.3057 8.985 11.1355C9.0444 10.9654 9.13322 10.8093 9.25144 10.6671L8.09484 9.21666C7.7635 9.41412 7.39795 9.51285 6.99817 9.51285C6.59849 9.51285 6.23113 9.41412 5.89611 9.21666L4.7484 10.6671C4.86283 10.8093 4.95072 10.9654 5.01206 11.1355C5.07341 11.3057 5.10408 11.4827 5.10408 11.6667C5.10408 12.1122 4.94819 12.491 4.6364 12.803C4.32461 13.1149 3.94602 13.2708 3.50065 13.2708Z" fill="#1C1B1F"/>
</g>
</svg>
