<svg width="14" height="14" viewBox="0 0 14 14" fill="none" xmlns="http://www.w3.org/2000/svg">
<mask id="mask0_9529_6" style="mask-type:alpha" maskUnits="userSpaceOnUse" x="0" y="0" width="14" height="14">
<rect width="14" height="14" fill="#D9D9D9"/>
</mask>
<g mask="url(#mask0_9529_6)">
<path d="M1.83289 5.46656L3.63451 2.27047C3.68915 2.17481 3.75556 2.10544 3.83372 2.06237C3.91199 2.0194 3.99895 1.99791 4.09462 1.99791C4.19029 1.99791 4.27715 2.0194 4.35522 2.06237C4.43339 2.10544 4.49979 2.17481 4.55443 2.27047L6.35606 5.46656C6.40467 5.55513 6.42654 5.6437 6.42168 5.73227C6.41682 5.82084 6.39193 5.90498 6.34701 5.9847C6.30326 6.06384 6.24201 6.12757 6.16326 6.17589C6.08461 6.22421 5.99526 6.24837 5.89522 6.24837H2.29372C2.19368 6.24837 2.10429 6.22421 2.02554 6.17589C1.94688 6.12757 1.88568 6.06384 1.84193 5.9847C1.79701 5.90498 1.77213 5.82084 1.76726 5.73227C1.7624 5.6437 1.78428 5.55513 1.83289 5.46656ZM4.10001 12.1097C3.49208 12.1097 2.97457 11.8962 2.54747 11.4692C2.12047 11.0422 1.90697 10.5247 1.90697 9.91666C1.90697 9.30863 2.12047 8.79112 2.54747 8.36412C2.97457 7.93712 3.49208 7.72362 4.10001 7.72362C4.70804 7.72362 5.22556 7.93712 5.65256 8.36412C6.07965 8.79112 6.2932 9.30863 6.2932 9.91666C6.2932 10.5247 6.07965 11.0422 5.65256 11.4692C5.22556 11.8962 4.70804 12.1097 4.10001 12.1097ZM7.73476 11.5825V8.25081C7.73476 8.10138 7.78527 7.97615 7.88629 7.87514C7.9873 7.77413 8.11252 7.72362 8.26195 7.72362H11.5937C11.743 7.72362 11.8682 7.77413 11.9693 7.87514C12.0703 7.97615 12.1208 8.10138 12.1208 8.25081V11.5825C12.1208 11.7319 12.0703 11.8572 11.9693 11.9582C11.8682 12.0592 11.743 12.1097 11.5937 12.1097H8.26195C8.11252 12.1097 7.9873 12.0592 7.88629 11.9582C7.78527 11.8572 7.73476 11.7319 7.73476 11.5825ZM9.58787 5.96677L8.94956 5.43404C8.36107 4.94861 7.93013 4.53653 7.65674 4.19781C7.38335 3.85899 7.24666 3.48843 7.24666 3.08612C7.24666 2.69344 7.3802 2.36512 7.64726 2.10116C7.91424 1.83711 8.24999 1.70508 8.65454 1.70508C8.90206 1.70508 9.1335 1.76399 9.34885 1.88183C9.56429 1.99966 9.75728 2.16922 9.92781 2.39049C10.0983 2.17291 10.2932 2.00428 10.5123 1.8846C10.7313 1.76492 10.9628 1.70508 11.2066 1.70508C11.606 1.70508 11.9396 1.84007 12.2073 2.11006C12.475 2.38004 12.6088 2.71099 12.6088 3.10289C12.6088 3.5015 12.4722 3.86832 12.1989 4.20335C11.9255 4.53838 11.4945 4.94861 10.9061 5.43404L10.2677 5.96677C10.1718 6.05281 10.0584 6.09583 9.92766 6.09583C9.7969 6.09583 9.68363 6.05281 9.58787 5.96677Z" fill="#1C1B1F"/>
</g>
</svg>
