<svg width="14" height="14" viewBox="0 0 14 14" fill="none" xmlns="http://www.w3.org/2000/svg">
<mask id="mask0_9529_10" style="mask-type:alpha" maskUnits="userSpaceOnUse" x="0" y="0" width="14" height="14">
<rect width="14" height="14" fill="#D9D9D9"/>
</mask>
<g mask="url(#mask0_9529_10)">
<path d="M1.89575 11.8013V9.78206C1.89575 9.53599 1.98194 9.32677 2.15431 9.1544C2.32669 8.98202 2.53591 8.89583 2.78198 8.89583H3.64575V7.61702C3.64575 7.32613 3.74876 7.07763 3.95477 6.87152C4.16088 6.66551 4.40938 6.5625 4.70027 6.5625H6.56242V5.10417H5.69865C5.45258 5.10417 5.24336 5.01798 5.07098 4.8456C4.89861 4.67323 4.81242 4.46401 4.81242 4.21794V2.19873C4.81242 1.95266 4.89861 1.74344 5.07098 1.57106C5.24336 1.39869 5.45258 1.3125 5.69865 1.3125H8.30119C8.54726 1.3125 8.75648 1.39869 8.92886 1.57106C9.10123 1.74344 9.18742 1.95266 9.18742 2.19873V4.21794C9.18742 4.46401 9.10123 4.67323 8.92886 4.8456C8.75648 5.01798 8.54726 5.10417 8.30119 5.10417H7.43742V6.5625H9.29956C9.59045 6.5625 9.83895 6.66551 10.0451 6.87152C10.2511 7.07763 10.3541 7.32613 10.3541 7.61702V8.89583H11.2179C11.4639 8.89583 11.6731 8.98202 11.8455 9.1544C12.0179 9.32677 12.1041 9.53599 12.1041 9.78206V11.8013C12.1041 12.0473 12.0179 12.2566 11.8455 12.4289C11.6731 12.6013 11.4639 12.6875 11.2179 12.6875H8.61531C8.36925 12.6875 8.16002 12.6013 7.98765 12.4289C7.81527 12.2566 7.72908 12.0473 7.72908 11.8013V9.78206C7.72908 9.53599 7.81527 9.32677 7.98765 9.1544C8.16002 8.98202 8.36925 8.89583 8.61531 8.89583H9.47908V7.61702C9.47908 7.56462 9.46227 7.5216 9.42863 7.48796C9.39499 7.45432 9.35197 7.4375 9.29956 7.4375H4.70027C4.64787 7.4375 4.60485 7.45432 4.57121 7.48796C4.53757 7.5216 4.52075 7.56462 4.52075 7.61702V8.89583H5.38452C5.63059 8.89583 5.83981 8.98202 6.01219 9.1544C6.18456 9.32677 6.27075 9.53599 6.27075 9.78206V11.8013C6.27075 12.0473 6.18456 12.2566 6.01219 12.4289C5.83981 12.6013 5.63059 12.6875 5.38452 12.6875H2.78198C2.53591 12.6875 2.32669 12.6013 2.15431 12.4289C1.98194 12.2566 1.89575 12.0473 1.89575 11.8013Z" fill="#1C1B1F"/>
</g>
</svg>
