<svg width="28" height="28" viewBox="0 0 28 28" fill="none" xmlns="http://www.w3.org/2000/svg">
<mask id="mask0_4409_14019" style="mask-type:alpha" maskUnits="userSpaceOnUse" x="6" y="6" width="16" height="16">
<rect x="6" y="6" width="16" height="16" fill="#D9D9D9"/>
</mask>
<g mask="url(#mask0_4409_14019)">
<path d="M14 20.6666C13.0889 20.6666 12.2278 20.4916 11.4167 20.1416C10.6056 19.7916 9.89722 19.3139 9.29166 18.7083C8.68611 18.1028 8.20833 17.3944 7.85833 16.5833C7.50833 15.7722 7.33333 14.9111 7.33333 14C7.33333 13.0778 7.50833 12.2139 7.85833 11.4083C8.20833 10.6028 8.68611 9.8972 9.29166 9.29165C9.89722 8.68609 10.6056 8.20831 11.4167 7.85831C12.2278 7.50831 13.0889 7.33331 14 7.33331C14.1889 7.33331 14.3472 7.3972 14.475 7.52498C14.6028 7.65276 14.6667 7.81109 14.6667 7.99998C14.6667 8.18887 14.6028 8.3472 14.475 8.47498C14.3472 8.60276 14.1889 8.66665 14 8.66665C12.5222 8.66665 11.2639 9.18609 10.225 10.225C9.18611 11.2639 8.66666 12.5222 8.66666 14C8.66666 15.4778 9.18611 16.7361 10.225 17.775C11.2639 18.8139 12.5222 19.3333 14 19.3333C15.4778 19.3333 16.7361 18.8139 17.775 17.775C18.8139 16.7361 19.3333 15.4778 19.3333 14C19.3333 13.8111 19.3972 13.6528 19.525 13.525C19.6528 13.3972 19.8111 13.3333 20 13.3333C20.1889 13.3333 20.3472 13.3972 20.475 13.525C20.6028 13.6528 20.6667 13.8111 20.6667 14C20.6667 14.9111 20.4917 15.7722 20.1417 16.5833C19.7917 17.3944 19.3139 18.1028 18.7083 18.7083C18.1028 19.3139 17.3972 19.7916 16.5917 20.1416C15.7861 20.4916 14.9222 20.6666 14 20.6666Z" fill="white"/>
</g>
</svg>
