<svg width="28" height="28" viewBox="0 0 28 28" fill="none" xmlns="http://www.w3.org/2000/svg">
<rect width="28" height="28" rx="14" fill="#303342"/>
<mask id="mask0_4409_14016" style="mask-type:alpha" maskUnits="userSpaceOnUse" x="6" y="6" width="16" height="16">
<rect x="6" y="6" width="16" height="16" fill="#D9D9D9"/>
</mask>
<g mask="url(#mask0_4409_14016)">
<path d="M14 20.6667C13.1667 20.6667 12.3861 20.5083 11.6583 20.1917C10.9306 19.875 10.2972 19.4472 9.75833 18.9083C9.21944 18.3695 8.79167 17.7361 8.475 17.0083C8.15833 16.2806 8 15.5 8 14.6667C8 14.4778 8.06389 14.3195 8.19167 14.1917C8.31944 14.0639 8.47778 14 8.66667 14C8.85556 14 9.01389 14.0639 9.14167 14.1917C9.26944 14.3195 9.33333 14.4778 9.33333 14.6667C9.33333 15.9667 9.78611 17.0695 10.6917 17.975C11.5972 18.8806 12.7 19.3333 14 19.3333C15.3 19.3333 16.4028 18.8806 17.3083 17.975C18.2139 17.0695 18.6667 15.9667 18.6667 14.6667C18.6667 13.3667 18.2139 12.2639 17.3083 11.3583C16.4028 10.4528 15.3 10 14 10H13.9L14.4667 10.5667C14.6 10.7 14.6639 10.8556 14.6583 11.0333C14.6528 11.2111 14.5889 11.3667 14.4667 11.5C14.3333 11.6333 14.175 11.7028 13.9917 11.7083C13.8083 11.7139 13.65 11.65 13.5167 11.5167L11.8 9.80001C11.6667 9.66667 11.6 9.51112 11.6 9.33334C11.6 9.15556 11.6667 9.00001 11.8 8.86667L13.5167 7.15001C13.65 7.01667 13.8083 6.95279 13.9917 6.95834C14.175 6.9639 14.3333 7.03334 14.4667 7.16667C14.5889 7.30001 14.6528 7.45556 14.6583 7.63334C14.6639 7.81112 14.6 7.96667 14.4667 8.10001L13.9 8.66667H14C14.8333 8.66667 15.6139 8.82501 16.3417 9.14167C17.0694 9.45834 17.7028 9.88612 18.2417 10.425C18.7806 10.9639 19.2083 11.5972 19.525 12.325C19.8417 13.0528 20 13.8333 20 14.6667C20 15.5 19.8417 16.2806 19.525 17.0083C19.2083 17.7361 18.7806 18.3695 18.2417 18.9083C17.7028 19.4472 17.0694 19.875 16.3417 20.1917C15.6139 20.5083 14.8333 20.6667 14 20.6667Z" fill="white"/>
</g>
</svg>
