<svg width="16" height="16" viewBox="0 0 16 16" fill="none" xmlns="http://www.w3.org/2000/svg">
<g clip-path="url(#clip0_5284_1645)">
<path d="M12.5867 0H3.41332C1.5282 0 0 1.5282 0 3.41332V12.5867C0 14.4718 1.5282 16 3.41332 16H12.5867C14.4718 16 16 14.4718 16 12.5867V3.41332C16 1.5282 14.4718 0 12.5867 0Z" fill="#ED802C"/>
<path fill-rule="evenodd" clip-rule="evenodd" d="M5.43728 10.5593C5.66447 10.7861 5.80288 11.0936 5.80363 11.4363C5.80288 11.7786 5.66447 12.0861 5.4383 12.3119C5.21192 12.5375 4.9014 12.6759 4.55714 12.6759C4.21332 12.6759 3.90458 12.5377 3.6778 12.3119C3.45178 12.0861 3.31262 11.7788 3.31262 11.4363C3.31262 11.0936 3.45178 10.7853 3.6778 10.5591C3.90458 10.3333 4.21332 10.1947 4.55714 10.1947C4.9012 10.1945 5.2103 10.3337 5.43728 10.5593ZM3.31343 6.50029V8.29059C4.48215 8.29114 5.5875 8.75028 6.41454 9.57873C7.24159 10.4044 7.69872 11.5113 7.7007 12.6842L7.7013 12.6875H9.49868C9.49732 10.9823 8.80408 9.43779 7.68351 8.31642C6.5628 7.19509 5.01883 6.50125 3.31343 6.50029ZM3.31661 3.31253V5.10181C7.49425 5.10479 10.8899 8.50572 10.893 12.6873H12.6875C12.6863 10.1028 11.6358 7.76158 9.93824 6.06289C8.24017 4.36475 5.89999 3.31349 3.31661 3.31253Z" fill="white"/>
</g>
<defs>
<clipPath id="clip0_5284_1645">
<rect width="16" height="16" fill="white"/>
</clipPath>
</defs>
</svg>
