<svg width="14" height="14" viewBox="0 0 14 14" fill="none" xmlns="http://www.w3.org/2000/svg">
<mask id="mask0_9529_33" style="mask-type:alpha" maskUnits="userSpaceOnUse" x="0" y="0" width="14" height="14">
<rect width="14" height="14" fill="#D9D9D9"/>
</mask>
<g mask="url(#mask0_9529_33)">
<path d="M4.05992 11.7788C3.80539 11.7788 3.5794 11.6954 3.38194 11.5287C3.18448 11.3621 3.06383 11.1515 3.01998 10.8971L2.19982 5.98194C2.17298 5.82084 2.21036 5.67725 2.31196 5.55115C2.41346 5.42515 2.54811 5.36215 2.71592 5.36215H11.2842C11.452 5.36215 11.5867 5.42515 11.6882 5.55115C11.7898 5.67725 11.8271 5.82084 11.8003 5.98194L10.9801 10.8971C10.9363 11.1515 10.8156 11.3621 10.6182 11.5287C10.4207 11.6954 10.1947 11.7788 9.94021 11.7788H4.05992ZM5.8334 8.42465H8.16673C8.29069 8.42465 8.39457 8.3827 8.47838 8.2988C8.56228 8.21489 8.60423 8.11096 8.60423 7.987C8.60423 7.86295 8.56228 7.75907 8.47838 7.67536C8.39457 7.59155 8.29069 7.54965 8.16673 7.54965H5.8334C5.70944 7.54965 5.60556 7.5916 5.52175 7.6755C5.43785 7.75941 5.3959 7.86334 5.3959 7.9873C5.3959 8.11135 5.43785 8.21528 5.52175 8.29909C5.60556 8.38279 5.70944 8.42465 5.8334 8.42465ZM3.50007 4.66667C3.37611 4.66667 3.27223 4.62472 3.18842 4.54082C3.10452 4.45691 3.06257 4.35298 3.06257 4.22902C3.06257 4.10497 3.10452 4.00109 3.18842 3.91738C3.27223 3.83357 3.37611 3.79167 3.50007 3.79167H10.5001C10.624 3.79167 10.7279 3.83362 10.8117 3.91752C10.8956 4.00143 10.9376 4.10536 10.9376 4.22932C10.9376 4.35337 10.8956 4.45725 10.8117 4.54096C10.7279 4.62477 10.624 4.66667 10.5001 4.66667H3.50007ZM4.66673 3.09619C4.54277 3.09619 4.43889 3.05424 4.35509 2.97034C4.27118 2.88643 4.22923 2.7825 4.22923 2.65855C4.22923 2.53449 4.27118 2.43061 4.35509 2.3469C4.43889 2.26309 4.54277 2.22119 4.66673 2.22119H9.3334C9.45736 2.22119 9.56124 2.26314 9.64505 2.34705C9.72895 2.43095 9.7709 2.53488 9.7709 2.65884C9.7709 2.78289 9.72895 2.88677 9.64505 2.97048C9.56124 3.05429 9.45736 3.09619 9.3334 3.09619H4.66673Z" fill="#1C1B1F"/>
</g>
</svg>
