<svg width="28" height="28" viewBox="0 0 28 28" fill="none" xmlns="http://www.w3.org/2000/svg">
<mask id="mask0_4409_14015" style="mask-type:alpha" maskUnits="userSpaceOnUse" x="4" y="4" width="20" height="20">
<rect x="4" y="4" width="20" height="20" fill="#D9D9D9"/>
</mask>
<g mask="url(#mask0_4409_14015)">
<path d="M6.4519 19.7307L6.42786 19.1939L7.95829 17.6715V19.6266C7.95829 19.8143 7.88636 19.9721 7.74248 20.0999C7.59859 20.2277 7.37663 20.2916 7.07661 20.2916C6.91013 20.2916 6.7684 20.2384 6.65142 20.132C6.53443 20.0255 6.46793 19.8918 6.4519 19.7307ZM10.0417 19.6666V15.5881L11.2916 14.3382V19.6666C11.2916 19.8437 11.2317 19.9922 11.1119 20.1119C10.992 20.2317 10.8435 20.2916 10.6664 20.2916C10.4892 20.2916 10.3408 20.2317 10.2211 20.1119C10.1015 19.9922 10.0417 19.8437 10.0417 19.6666ZM13.375 19.6666V14.3382L14.625 15.6089V19.6666C14.625 19.8437 14.565 19.9922 14.4452 20.1119C14.3254 20.2317 14.1769 20.2916 13.9997 20.2916C13.8225 20.2916 13.6741 20.2317 13.5545 20.1119C13.4348 19.9922 13.375 19.8437 13.375 19.6666ZM16.7083 19.6666V15.6089L17.9583 14.359V19.6666C17.9583 19.8437 17.8984 19.9922 17.7785 20.1119C17.6587 20.2317 17.5102 20.2916 17.333 20.2916C17.1559 20.2916 17.0075 20.2317 16.8878 20.1119C16.7682 19.9922 16.7083 19.8437 16.7083 19.6666ZM20.0417 19.6666V12.2548L21.2916 11.0048V19.6666C21.2916 19.8437 21.2317 19.9922 21.1119 20.1119C20.992 20.2317 20.8435 20.2916 20.6664 20.2916C20.4892 20.2916 20.3408 20.2317 20.2211 20.1119C20.1015 19.9922 20.0417 19.8437 20.0417 19.6666ZM6.89423 13.7356L11.266 9.36376C11.5531 9.07637 11.9087 8.93268 12.333 8.93268C12.7574 8.93268 13.1132 9.07637 13.4006 9.36376L15.4823 11.4455C15.5304 11.4936 15.5919 11.5176 15.6666 11.5176C15.7414 11.5176 15.8029 11.4936 15.851 11.4455L20.2276 7.06889C20.3515 6.94496 20.5 6.8838 20.6731 6.88541C20.8461 6.887 20.9946 6.95244 21.1186 7.08172C21.2339 7.20564 21.289 7.35313 21.2839 7.5242C21.2787 7.69527 21.2193 7.83783 21.1057 7.95189L16.7339 12.3237C16.4469 12.6111 16.0912 12.7548 15.6669 12.7548C15.2426 12.7548 14.8867 12.6111 14.5994 12.3237L12.5176 10.2419C12.4695 10.1939 12.4081 10.1698 12.3333 10.1698C12.2585 10.1698 12.1971 10.1939 12.149 10.2419L7.7724 14.6186C7.64848 14.7425 7.49998 14.8036 7.3269 14.802C7.15383 14.8004 7.00533 14.735 6.8814 14.6057C6.76602 14.4818 6.71092 14.3343 6.71609 14.1632C6.72124 13.9922 6.78062 13.8496 6.89423 13.7356Z" fill="#909BAA"/>
</g>
</svg>
