<svg width="14" height="14" viewBox="0 0 14 14" fill="none" xmlns="http://www.w3.org/2000/svg">
<mask id="mask0_9529_37" style="mask-type:alpha" maskUnits="userSpaceOnUse" x="0" y="0" width="14" height="14">
<rect width="14" height="14" fill="#D9D9D9"/>
</mask>
<g mask="url(#mask0_9529_37)">
<path d="M2.51277 11.375C2.21809 11.375 1.96867 11.2729 1.7645 11.0688C1.56034 10.8646 1.45825 10.6152 1.45825 10.3205V3.67952C1.45825 3.38484 1.56034 3.13542 1.7645 2.93125C1.96867 2.72708 2.21809 2.625 2.51277 2.625H11.4871C11.7817 2.625 12.0312 2.72708 12.2353 2.93125C12.4395 3.13542 12.5416 3.38484 12.5416 3.67952V10.3205C12.5416 10.6152 12.4395 10.8646 12.2353 11.0688C12.0312 11.2729 11.7817 11.375 11.4871 11.375H2.51277ZM7.43742 10.5H11.4871C11.532 10.5 11.5731 10.4813 11.6104 10.4439C11.6479 10.4065 11.6666 10.3654 11.6666 10.3205V3.67952C11.6666 3.6346 11.6479 3.59348 11.6104 3.55615C11.5731 3.51871 11.532 3.5 11.4871 3.5H7.43742V10.5ZM3.46623 9.1875H5.42944C5.5534 9.1875 5.65728 9.14555 5.74109 9.06165C5.82499 8.97774 5.86694 8.87381 5.86694 8.74985C5.86694 8.6258 5.82499 8.52192 5.74109 8.43821C5.65728 8.3544 5.5534 8.3125 5.42944 8.3125H3.46623C3.34227 8.3125 3.23839 8.35445 3.15459 8.43835C3.07068 8.52226 3.02873 8.62619 3.02873 8.75015C3.02873 8.8742 3.07068 8.97808 3.15459 9.06179C3.23839 9.1456 3.34227 9.1875 3.46623 9.1875ZM3.46623 7.4375H5.42944C5.5534 7.4375 5.65728 7.39555 5.74109 7.31165C5.82499 7.22774 5.86694 7.12381 5.86694 6.99985C5.86694 6.8758 5.82499 6.77192 5.74109 6.68821C5.65728 6.6044 5.5534 6.5625 5.42944 6.5625H3.46623C3.34227 6.5625 3.23839 6.60445 3.15459 6.68835C3.07068 6.77226 3.02873 6.87619 3.02873 7.00015C3.02873 7.1242 3.07068 7.22808 3.15459 7.31179C3.23839 7.3956 3.34227 7.4375 3.46623 7.4375ZM3.46623 5.6875H5.42944C5.5534 5.6875 5.65728 5.64555 5.74109 5.56165C5.82499 5.47774 5.86694 5.37381 5.86694 5.24985C5.86694 5.1258 5.82499 5.02192 5.74109 4.93821C5.65728 4.8544 5.5534 4.8125 5.42944 4.8125H3.46623C3.34227 4.8125 3.23839 4.85445 3.15459 4.93835C3.07068 5.02226 3.02873 5.12619 3.02873 5.25015C3.02873 5.3742 3.07068 5.47808 3.15459 5.56179C3.23839 5.6456 3.34227 5.6875 3.46623 5.6875ZM8.5704 9.1875H10.5336C10.6576 9.1875 10.7614 9.14555 10.8453 9.06165C10.9292 8.97774 10.9711 8.87381 10.9711 8.74985C10.9711 8.6258 10.9292 8.52192 10.8453 8.43821C10.7614 8.3544 10.6576 8.3125 10.5336 8.3125H8.5704C8.44644 8.3125 8.34256 8.35445 8.25875 8.43835C8.17485 8.52226 8.1329 8.62619 8.1329 8.75015C8.1329 8.8742 8.17485 8.97808 8.25875 9.06179C8.34256 9.1456 8.44644 9.1875 8.5704 9.1875ZM8.5704 7.4375H10.5336C10.6576 7.4375 10.7614 7.39555 10.8453 7.31165C10.9292 7.22774 10.9711 7.12381 10.9711 6.99985C10.9711 6.8758 10.9292 6.77192 10.8453 6.68821C10.7614 6.6044 10.6576 6.5625 10.5336 6.5625H8.5704C8.44644 6.5625 8.34256 6.60445 8.25875 6.68835C8.17485 6.77226 8.1329 6.87619 8.1329 7.00015C8.1329 7.1242 8.17485 7.22808 8.25875 7.31179C8.34256 7.3956 8.44644 7.4375 8.5704 7.4375ZM8.5704 5.6875H10.5336C10.6576 5.6875 10.7614 5.64555 10.8453 5.56165C10.9292 5.47774 10.9711 5.37381 10.9711 5.24985C10.9711 5.1258 10.9292 5.02192 10.8453 4.93821C10.7614 4.8544 10.6576 4.8125 10.5336 4.8125H8.5704C8.44644 4.8125 8.34256 4.85445 8.25875 4.93835C8.17485 5.02226 8.1329 5.12619 8.1329 5.25015C8.1329 5.3742 8.17485 5.47808 8.25875 5.56179C8.34256 5.6456 8.44644 5.6875 8.5704 5.6875Z" fill="#1C1B1F"/>
</g>
</svg>
