<svg width="32" height="32" viewBox="0 0 32 32" fill="none" xmlns="http://www.w3.org/2000/svg">
<g id="Video">
<mask id="mask0_1502_75848" style="mask-type:alpha" maskUnits="userSpaceOnUse" x="0" y="0" width="32" height="32">
<rect id="Bounding box" width="32" height="32" fill="#D9D9D9"/>
</mask>
<g mask="url(#mask0_1502_75848)">
<path id="Subtract" fill-rule="evenodd" clip-rule="evenodd" d="M28.7563 6.07438C30.145 6.44619 31.2401 7.53973 31.6107 8.92854C32.2857 11.4473 32.2857 16.7 32.2857 16.7C32.2857 16.7 32.2857 21.9545 31.6107 24.4715C31.2401 25.8603 30.145 26.9539 28.7563 27.3257C26.2395 28 16.1429 28 16.1429 28C16.1429 28 6.04807 28 3.52942 27.3257C2.14076 26.9539 1.04562 25.8603 0.675065 24.4715C0 21.9527 0 16.7 0 16.7C0 16.7 0 11.4473 0.675065 8.92854C1.04562 7.53973 2.14076 6.44619 3.52942 6.07438C6.04623 5.40002 16.1429 5.40002 16.1429 5.40002C16.1429 5.40002 26.2395 5.40002 28.7563 6.07438ZM20.9861 16.7L12.9147 11.8572V21.5429L20.9861 16.7Z" fill="#3F4252"/>
</g>
</g>
</svg>
