<svg width="14" height="14" viewBox="0 0 14 14" fill="none" xmlns="http://www.w3.org/2000/svg">
<mask id="mask0_9529_29" style="mask-type:alpha" maskUnits="userSpaceOnUse" x="0" y="0" width="14" height="14">
<rect width="14" height="14" fill="#D9D9D9"/>
</mask>
<g mask="url(#mask0_9529_29)">
<path d="M4.08333 10.2083C3.1921 10.2083 2.43459 9.89655 1.81081 9.27296C1.18694 8.64938 0.875 7.89216 0.875 7.00132C0.875 6.11047 1.18694 5.35282 1.81081 4.72836C2.43459 4.1039 3.1921 3.79167 4.08333 3.79167C4.8334 3.79167 5.48197 4.00819 6.02904 4.44121C6.57611 4.87424 6.9476 5.4131 7.1435 6.05778H12.1826C12.4418 6.05778 12.6637 6.15004 12.8482 6.33457C13.0327 6.5191 13.125 6.74091 13.125 7.00001C13.125 7.27894 13.0287 7.50571 12.8361 7.68032C12.6435 7.85493 12.4257 7.94223 12.1826 7.94223H11.8573V9.15382C11.8573 9.41291 11.765 9.63478 11.5805 9.8194C11.396 10.0039 11.1741 10.0962 10.915 10.0962C10.6559 10.0962 10.4341 10.0039 10.2496 9.8194C10.0651 9.63478 9.97281 9.41291 9.97281 9.15382V7.94223H7.1435C6.9476 8.58691 6.57611 9.12577 6.02904 9.5588C5.48197 9.99182 4.8334 10.2083 4.08333 10.2083ZM4.08333 7.94223C4.34243 7.94223 4.56424 7.84997 4.74877 7.66544C4.9333 7.48091 5.02556 7.2591 5.02556 7.00001C5.02556 6.74091 4.9333 6.5191 4.74877 6.33457C4.56424 6.15004 4.34243 6.05778 4.08333 6.05778C3.82424 6.05778 3.60242 6.15004 3.4179 6.33457C3.23337 6.5191 3.1411 6.74091 3.1411 7.00001C3.1411 7.2591 3.23337 7.48091 3.4179 7.66544C3.60242 7.84997 3.82424 7.94223 4.08333 7.94223Z" fill="#1C1B1F"/>
</g>
</svg>
