<svg width="32" height="32" viewBox="0 0 32 32" fill="none" xmlns="http://www.w3.org/2000/svg">
<g id="Audio">
<mask id="mask0_1502_75832" style="mask-type:alpha" maskUnits="userSpaceOnUse" x="0" y="0" width="32" height="32">
<rect id="Bounding box" width="32" height="32" fill="#3F4252"/>
</mask>
<g mask="url(#mask0_1502_75832)">
<path id="headphones" d="M8.97438 27.3334H7.07701C6.4035 27.3334 5.83341 27.1 5.36675 26.6334C4.90008 26.1667 4.66675 25.5966 4.66675 24.9231V16C4.66675 14.4267 4.96419 12.9531 5.55908 11.579C6.15395 10.205 6.96248 9.0069 7.98468 7.98468C9.0069 6.96248 10.2049 6.15395 11.5788 5.55908C12.9527 4.96419 14.4262 4.66675 15.9993 4.66675C17.5724 4.66675 19.0462 4.96419 20.4205 5.55908C21.7949 6.15395 22.9932 6.96248 24.0154 7.98468C25.0376 9.0069 25.8462 10.205 26.441 11.579C27.0359 12.9531 27.3334 14.4267 27.3334 16V24.9231C27.3334 25.5966 27.1 26.1667 26.6334 26.6334C26.1667 27.1 25.5966 27.3334 24.9231 27.3334H23.0257C22.3629 27.3334 21.7955 27.0973 21.3235 26.6253C20.8515 26.1533 20.6155 25.5859 20.6155 24.9231V20.3077C20.6155 19.6449 20.8515 19.0776 21.3235 18.6056C21.7955 18.1335 22.3629 17.8975 23.0257 17.8975H25.3334V16C25.3334 13.4 24.4278 11.1945 22.6167 9.38338C20.8056 7.57227 18.6 6.66672 16 6.66672C13.4 6.66672 11.1945 7.57227 9.38338 9.38338C7.57227 11.1945 6.66671 13.4 6.66671 16V17.8975H8.97438C9.6372 17.8975 10.2046 18.1335 10.6766 18.6056C11.1486 19.0776 11.3846 19.6449 11.3846 20.3077V24.9231C11.3846 25.5859 11.1486 26.1533 10.6766 26.6253C10.2046 27.0973 9.6372 27.3334 8.97438 27.3334Z" fill="#3F4252"/>
</g>
</g>
</svg>
