<svg width="62" height="62" viewBox="0 0 62 62" fill="none" xmlns="http://www.w3.org/2000/svg">
<rect width="62" height="62" rx="4" fill="black" fill-opacity="0.25"/>
<path fill-rule="evenodd" clip-rule="evenodd" d="M31.5005 15C22.4017 15 15 22.4344 15 31.5735C15 36.1593 16.8235 40.427 20.1351 43.5874C20.3776 43.8194 20.689 43.9338 20.9993 43.9338C21.3306 43.9338 21.6619 43.8026 21.9085 43.5423C22.386 43.0385 22.3651 42.2407 21.8635 41.7621C19.0556 39.0814 17.509 35.4634 17.509 31.5735C17.508 23.8241 23.7853 17.5191 31.5005 17.5191C39.2157 17.5191 45.493 23.8241 45.493 31.5735C45.493 35.4455 43.9579 39.0531 41.1709 41.7306C40.6704 42.2114 40.6526 43.0091 41.1312 43.5118C41.6098 44.0146 42.404 44.0324 42.9046 43.5517C46.1911 40.3945 48.001 36.1404 48.001 31.5735C48 22.4344 40.5983 15 31.5005 15ZM31.4997 28.2861C29.7117 28.2861 28.2612 29.742 28.2612 31.5389C28.2612 32.9024 29.0962 34.0685 30.2802 34.5524V46.7416C30.2802 47.4375 30.8413 48.0011 31.5342 48.0011C32.227 48.0011 32.7882 47.4375 32.7882 46.7416V34.524C33.9356 34.0233 34.7381 32.8761 34.7381 31.5399C34.7381 29.7441 33.2887 28.2872 31.4997 28.2872V28.2861ZM21.686 31.5738C21.686 26.1379 26.0886 21.7158 31.5007 21.7158C36.9127 21.7158 41.3153 26.1379 41.3153 31.5738C41.3153 34.3144 40.1647 36.9531 38.1583 38.8152C37.6494 39.2875 36.8563 39.256 36.386 38.7448C35.9158 38.2337 35.9471 37.437 36.456 36.9647C37.9504 35.5781 38.8073 33.6132 38.8073 31.5738C38.8073 27.5265 35.5302 24.2349 31.5007 24.2349C27.4711 24.2349 24.194 27.5276 24.194 31.5738C24.194 33.63 25.0614 35.6054 26.5745 36.9941C27.0866 37.4632 27.1221 38.2599 26.655 38.7732C26.4084 39.045 26.0688 39.1836 25.7291 39.1836C25.4271 39.1836 25.1241 39.0744 24.8837 38.854C22.8512 36.9899 21.686 34.3364 21.686 31.5738Z" fill="#444851"/>
</svg>
