<svg width="14" height="14" viewBox="0 0 14 14" fill="none" xmlns="http://www.w3.org/2000/svg">
<mask id="mask0_9529_55" style="mask-type:alpha" maskUnits="userSpaceOnUse" x="0" y="0" width="14" height="14">
<rect width="14" height="14" fill="#D9D9D9"/>
</mask>
<g mask="url(#mask0_9529_55)">
<path d="M4.75644 9.24365V10.0625C4.75644 10.1629 4.7893 10.246 4.85502 10.3117C4.92064 10.3775 5.00362 10.4103 5.10396 10.4103C5.20439 10.4103 5.28751 10.3775 5.35333 10.3117C5.41915 10.246 5.45206 10.1629 5.45206 10.0625V9.24365H6.27092C6.37135 9.24365 6.45442 9.21079 6.52014 9.14507C6.58587 9.07944 6.61873 8.99646 6.61873 8.89613C6.61873 8.7957 6.58587 8.71258 6.52014 8.64676C6.45442 8.58094 6.37135 8.54803 6.27092 8.54803H5.45206V7.72917C5.45206 7.62874 5.4192 7.54567 5.35348 7.47994C5.28785 7.41422 5.20487 7.38136 5.10454 7.38136C5.00411 7.38136 4.92098 7.41422 4.85517 7.47994C4.78935 7.54567 4.75644 7.62874 4.75644 7.72917V8.54803H3.93758C3.83715 8.54803 3.75407 8.58089 3.68835 8.64661C3.62263 8.71223 3.58977 8.79521 3.58977 8.89555C3.58977 8.99598 3.62263 9.0791 3.68835 9.14492C3.75407 9.21074 3.83715 9.24365 3.93758 9.24365H4.75644ZM8.02092 9.97282H10.0626C10.163 9.97282 10.2461 9.93996 10.3118 9.87423C10.3775 9.80861 10.4104 9.72563 10.4104 9.6253C10.4104 9.52487 10.3775 9.44174 10.3118 9.37592C10.2461 9.3101 10.163 9.27719 10.0626 9.27719H8.02092C7.92048 9.27719 7.83741 9.31005 7.77169 9.37578C7.70596 9.4414 7.6731 9.52438 7.6731 9.62471C7.6731 9.72514 7.70596 9.80827 7.77169 9.87409C7.83741 9.93991 7.92048 9.97282 8.02092 9.97282ZM8.02092 8.51448H10.0626C10.163 8.51448 10.2461 8.48162 10.3118 8.4159C10.3775 8.35028 10.4104 8.2673 10.4104 8.16696C10.4104 8.06653 10.3775 7.98341 10.3118 7.91759C10.2461 7.85177 10.163 7.81886 10.0626 7.81886H8.02092C7.92048 7.81886 7.83741 7.85172 7.77169 7.91744C7.70596 7.98307 7.6731 8.06605 7.6731 8.16638C7.6731 8.26681 7.70596 8.34994 7.77169 8.41576C7.83741 8.48158 7.92048 8.51448 8.02092 8.51448ZM9.04175 5.43623L9.61385 6.00834C9.68269 6.07717 9.76328 6.11251 9.85564 6.11436C9.94801 6.11621 10.031 6.08033 10.1046 6.00673C10.17 5.94121 10.2042 5.86173 10.2072 5.7683C10.2103 5.67477 10.1785 5.59174 10.1119 5.51921L9.53087 4.92917L10.103 4.35707C10.1718 4.28823 10.2072 4.20764 10.209 4.11528C10.2108 4.02292 10.1755 3.94047 10.103 3.86794C10.0305 3.79541 9.94893 3.75915 9.85842 3.75915C9.7679 3.75915 9.68638 3.79541 9.61385 3.86794L9.04175 4.44005L8.46965 3.86794C8.40081 3.79911 8.32021 3.76377 8.22785 3.76192C8.13549 3.76007 8.05305 3.79541 7.98052 3.86794C7.90799 3.94047 7.87173 4.02199 7.87173 4.11251C7.87173 4.20302 7.90799 4.28454 7.98052 4.35707L8.55262 4.92917L7.97162 5.51921C7.90872 5.58805 7.87635 5.66864 7.8745 5.761C7.87265 5.85337 7.90799 5.93581 7.98052 6.00834C8.05305 6.08087 8.13457 6.11713 8.22508 6.11713C8.3156 6.11713 8.39712 6.08087 8.46965 6.00834L9.04175 5.43623ZM4.08341 5.27698H6.12508C6.22551 5.27698 6.30859 5.24412 6.37431 5.1784C6.44003 5.11278 6.47289 5.0298 6.47289 4.92946C6.47289 4.82903 6.44003 4.74591 6.37431 4.68009C6.30859 4.61427 6.22551 4.58136 6.12508 4.58136H4.08341C3.98298 4.58136 3.89991 4.61422 3.83419 4.67994C3.76846 4.74557 3.7356 4.82855 3.7356 4.92888C3.7356 5.02931 3.76846 5.11244 3.83419 5.17826C3.89991 5.24408 3.98298 5.27698 4.08341 5.27698ZM3.09627 11.9583C2.80159 11.9583 2.55216 11.8563 2.348 11.6521C2.14383 11.4479 2.04175 11.1985 2.04175 10.9038V3.09619C2.04175 2.80151 2.14383 2.55209 2.348 2.34792C2.55216 2.14376 2.80159 2.04167 3.09627 2.04167H10.9039C11.1986 2.04167 11.448 2.14376 11.6522 2.34792C11.8563 2.55209 11.9584 2.80151 11.9584 3.09619V10.9038C11.9584 11.1985 11.8563 11.4479 11.6522 11.6521C11.448 11.8563 11.1986 11.9583 10.9039 11.9583H3.09627Z" fill="#1C1B1F"/>
</g>
</svg>
