<svg width="14" height="14" viewBox="0 0 14 14" fill="none" xmlns="http://www.w3.org/2000/svg">
<mask id="mask0_9529_2" style="mask-type:alpha" maskUnits="userSpaceOnUse" x="0" y="0" width="14" height="14">
<rect width="14" height="14" fill="#D9D9D9"/>
</mask>
<g mask="url(#mask0_9529_2)">
<path d="M6.47289 12.37L2.56908 10.123C2.40303 10.0273 2.27362 9.8995 2.18087 9.73947C2.08812 9.57935 2.04175 9.40357 2.04175 9.21214V4.78785C2.04175 4.59642 2.08812 4.42064 2.18087 4.26052C2.27362 4.10049 2.40303 3.97264 2.56908 3.87697L6.47289 1.62997C6.63885 1.53421 6.81458 1.48633 7.00008 1.48633C7.18558 1.48633 7.36131 1.53421 7.52727 1.62997L11.4311 3.87697C11.5971 3.97264 11.7265 4.10049 11.8193 4.26052C11.912 4.42064 11.9584 4.59642 11.9584 4.78785V9.21214C11.9584 9.40357 11.912 9.57935 11.8193 9.73947C11.7265 9.8995 11.5971 10.0273 11.4311 10.123L7.52727 12.37C7.36131 12.4658 7.18558 12.5137 7.00008 12.5137C6.81458 12.5137 6.63885 12.4658 6.47289 12.37ZM6.56258 7.25127V11.4154L6.92148 11.6217C6.94773 11.6367 6.97393 11.6442 7.00008 11.6442C7.02623 11.6442 7.05244 11.6367 7.07869 11.6217L7.43758 11.4154V7.25127L11.0834 5.14004V4.7632C11.0834 4.74444 11.0787 4.72572 11.0694 4.70706C11.0601 4.68839 11.046 4.67342 11.0273 4.66214L10.6022 4.41539L7.00008 6.49745L3.398 4.41539L2.97289 4.66214C2.95413 4.67342 2.94008 4.68839 2.93075 4.70706C2.92141 4.72572 2.91675 4.74444 2.91675 4.7632V5.14004L6.56258 7.25127Z" fill="#1C1B1F"/>
</g>
</svg>
