<svg width="52" height="52" viewBox="0 0 52 52" fill="none" xmlns="http://www.w3.org/2000/svg">
<path d="M38.4563 0H4C1.79086 0 0 1.79086 0 4V48C0 50.2091 1.79086 52 4 52H48C50.2091 52 52 50.2091 52 48V13.6212L38.4563 0Z" fill="url(#paint0_linear_5370_15055)"/>
<path d="M15.3333 37C14.9556 37 14.6389 36.8642 14.3833 36.5927C14.1278 36.3212 14 35.9847 14 35.5833C14 35.1819 14.1278 34.8455 14.3833 34.574C14.6389 34.3024 14.9556 34.1667 15.3333 34.1667H28.6667C29.0444 34.1667 29.3611 34.3024 29.6167 34.574C29.8722 34.8455 30 35.1819 30 35.5833C30 35.9847 29.8722 36.3212 29.6167 36.5927C29.3611 36.8642 29.0444 37 28.6667 37H15.3333ZM15.3333 29.9167C14.9556 29.9167 14.6389 29.7809 14.3833 29.5094C14.1278 29.2378 14 28.9014 14 28.5C14 28.0986 14.1278 27.7622 14.3833 27.4906C14.6389 27.2191 14.9556 27.0833 15.3333 27.0833H36.6667C37.0444 27.0833 37.3611 27.2191 37.6167 27.4906C37.8722 27.7622 38 28.0986 38 28.5C38 28.9014 37.8722 29.2378 37.6167 29.5094C37.3611 29.7809 37.0444 29.9167 36.6667 29.9167H15.3333ZM15.3333 22.8333C14.9556 22.8333 14.6389 22.6976 14.3833 22.426C14.1278 22.1545 14 21.8181 14 21.4167C14 21.0153 14.1278 20.6788 14.3833 20.4073C14.6389 20.1358 14.9556 20 15.3333 20H36.6667C37.0444 20 37.3611 20.1358 37.6167 20.4073C37.8722 20.6788 38 21.0153 38 21.4167C38 21.8181 37.8722 22.1545 37.6167 22.426C37.3611 22.6976 37.0444 22.8333 36.6667 22.8333H15.3333Z" fill="#727986"/>
<path opacity="0.75" d="M52 13.5L38.5 0V9.5C38.5 11.7091 40.2909 13.5 42.5 13.5H52Z" fill="#BAC1C6"/>
<defs>
<linearGradient id="paint0_linear_5370_15055" x1="21" y1="26" x2="4.5" y2="1.75948e-07" gradientUnits="userSpaceOnUse">
<stop stop-color="white"/>
<stop offset="1" stop-color="#B6B6B6"/>
</linearGradient>
</defs>
</svg>
