<svg width="30" height="30" viewBox="0 0 30 30" fill="none" xmlns="http://www.w3.org/2000/svg">
<path d="M7.2998 3.55175C7.2998 2.51069 8.11675 1.66675 9.1245 1.66675H12.1299C13.1376 1.66675 13.9546 2.51069 13.9546 3.55175V3.55175C13.9546 4.5928 13.1376 5.43675 12.1299 5.43675H9.1245C8.11675 5.43675 7.2998 4.5928 7.2998 3.55175V3.55175Z" fill="#3E4244"/>
<path d="M7.2998 26.4485C7.2998 27.4896 8.11675 28.3335 9.1245 28.3335H12.1299C13.1376 28.3335 13.9546 27.4896 13.9546 26.4485V26.4485C13.9546 25.4074 13.1376 24.5635 12.1299 24.5635H9.1245C8.11675 24.5635 7.2998 25.4074 7.2998 26.4485V26.4485Z" fill="#3E4244"/>
<path d="M2.79135 9.29564C2.79135 8.25459 3.6083 7.41064 4.61605 7.41064H12.1295C13.1373 7.41064 13.9542 8.25459 13.9542 9.29564V9.29564C13.9542 10.3367 13.1373 11.1806 12.1295 11.1806H4.61605C3.6083 11.1806 2.79135 10.3367 2.79135 9.29564V9.29564Z" fill="#3E4244"/>
<path d="M2.79135 20.7039C2.79135 21.7449 3.6083 22.5889 4.61605 22.5889H12.1295C13.1373 22.5889 13.9542 21.7449 13.9542 20.7039V20.7039C13.9542 19.6628 13.1373 18.8189 12.1295 18.8189H4.61605C3.6083 18.8189 2.79135 19.6628 2.79135 20.7039V20.7039Z" fill="#3E4244"/>
<path d="M0 15.0935C0 14.0524 0.816945 13.2085 1.8247 13.2085H12.1289C13.1366 13.2085 13.9536 14.0524 13.9536 15.0935V15.0935C13.9536 16.1346 13.1366 16.9785 12.1289 16.9785H1.8247C0.816946 16.9785 0 16.1346 0 15.0935V15.0935Z" fill="#3E4244"/>
<path d="M22.7002 26.4475C22.7002 27.4886 21.8833 28.3325 20.8755 28.3325H17.8701C16.8624 28.3325 16.0454 27.4886 16.0454 26.4475V26.4475C16.0454 25.4065 16.8624 24.5625 17.8701 24.5625H20.8755C21.8832 24.5625 22.7002 25.4065 22.7002 26.4475V26.4475Z" fill="#3E4244"/>
<path d="M22.7002 3.55175C22.7002 2.51069 21.8833 1.66675 20.8755 1.66675H17.8701C16.8624 1.66675 16.0454 2.51069 16.0454 3.55175V3.55175C16.0454 4.5928 16.8624 5.43675 17.8701 5.43675H20.8755C21.8832 5.43675 22.7002 4.5928 22.7002 3.55175V3.55175Z" fill="#3E4244"/>
<path d="M27.2086 20.7029C27.2086 21.7439 26.3917 22.5879 25.384 22.5879H17.8705C16.8627 22.5879 16.0458 21.7439 16.0458 20.7029V20.7029C16.0458 19.6618 16.8627 18.8179 17.8705 18.8179H25.384C26.3917 18.8179 27.2086 19.6618 27.2086 20.7029V20.7029Z" fill="#3E4244"/>
<path d="M27.2086 9.2954C27.2086 8.25434 26.3917 7.4104 25.384 7.4104H17.8705C16.8627 7.4104 16.0458 8.25434 16.0458 9.2954V9.2954C16.0458 10.3365 16.8627 11.1804 17.8705 11.1804H25.384C26.3917 11.1804 27.2086 10.3365 27.2086 9.2954V9.2954Z" fill="#3E4244"/>
<path d="M30 15.0925C30 14.0515 29.1831 13.2075 28.1753 13.2075H17.8711C16.8634 13.2075 16.0464 14.0515 16.0464 15.0925V15.0925C16.0464 16.1336 16.8634 16.9775 17.8711 16.9775H28.1753C29.1831 16.9775 30 16.1336 30 15.0925V15.0925Z" fill="#3E4244"/>
</svg>
