<svg width="24" height="24" viewBox="0 0 24 24" fill="none" xmlns="http://www.w3.org/2000/svg">
    <path
        d="M15.9604 10.83H12.9004L12.1404 13.12H14.4304C15.2704 13.12 15.9604 13.8 15.9604 14.65C15.9604 15.49 15.2804 16.18 14.4304 16.18H12.1404M9.54034 16.17V10.83L8.04034 12.5M13.9803 4.46997L12.0004 2M19.0904 7.79999C20.2004 9.27999 20.8904 11.11 20.8904 13.11C20.8904 18.02 16.9104 22 12.0004 22C7.09037 22 3.11035 18.02 3.11035 13.11C3.11035 8.19999 7.09037 4.21997 12.0004 4.21997C12.6804 4.21997 13.3403 4.31002 13.9803 4.46002"
        stroke="white" stroke-width="1.5" stroke-linecap="round" stroke-linejoin="round" />
</svg>
