<svg width="64" height="64" viewBox="0 0 64 64" fill="none" xmlns="http://www.w3.org/2000/svg">
<g id="Icon">
<rect width="64" height="64" fill="#618AFF"/>
<path id="Default Icon" fill-rule="evenodd" clip-rule="evenodd" d="M30.7458 22.7742H26.5318C25.5343 22.7742 24.7258 21.9293 24.7258 20.8871C24.7258 19.8449 25.5343 19 26.5318 19H30.7458C31.7432 19 32.5518 19.8449 32.5518 20.8871C32.5518 21.9293 31.7432 22.7742 30.7458 22.7742ZM26.5318 19.4194C25.756 19.4194 25.1271 20.0765 25.1271 20.8871C25.1271 20.9378 25.1295 20.9878 25.1343 21.0372C25.1295 20.9878 25.1271 20.9378 25.1271 20.8871C25.1271 20.0765 25.756 19.4194 26.5318 19.4194H30.7458C31.0027 19.4194 31.2435 19.4914 31.4507 19.6173C31.2435 19.4914 31.0027 19.4194 30.7458 19.4194H26.5318ZM26.4315 28.3306H21.5151C20.5177 28.3306 19.7091 27.4857 19.7091 26.4435C19.7091 25.4013 20.5177 24.5564 21.5151 24.5564H26.4315C27.4289 24.5564 28.2375 25.4013 28.2375 26.4435C28.2375 27.4857 27.4289 28.3306 26.4315 28.3306ZM21.268 24.9984C21.3482 24.9836 21.4308 24.9758 21.5151 24.9758H26.4314C27.2072 24.9758 27.8361 25.6329 27.8361 26.4435C27.8361 26.4917 27.8339 26.5393 27.8296 26.5863C27.8339 26.5393 27.8362 26.4917 27.8362 26.4435C27.8362 25.6329 27.2073 24.9758 26.4315 24.9758H21.5151C21.4308 24.9758 21.3482 24.9835 21.268 24.9984ZM37.0669 33.887H45.194C46.1914 33.887 47 33.0421 47 31.9999C47 30.9577 46.1914 30.1128 45.194 30.1128H37.0669C36.0695 30.1128 35.2609 30.9577 35.2609 31.9999C35.2609 33.0421 36.0695 33.887 37.0669 33.887ZM45.194 30.5321C45.9698 30.5321 46.5987 31.1893 46.5987 31.9999C46.5987 32.0379 46.5973 32.0755 46.5946 32.1128C46.5973 32.0755 46.5986 32.0379 46.5986 31.9999C46.5986 31.1893 45.9697 30.5322 45.194 30.5322H37.0669C36.6526 30.5322 36.2802 30.7196 36.0231 31.0177C36.2802 30.7196 36.6526 30.5321 37.0669 30.5321H45.194ZM31.9498 33.887H18.806C17.8086 33.887 17 33.0421 17 31.9999C17 30.9577 17.8086 30.1128 18.806 30.1128H31.9498C32.9473 30.1128 33.7558 30.9577 33.7558 31.9999C33.7558 33.0421 32.9473 33.887 31.9498 33.887ZM18.806 30.5321C18.0302 30.5321 17.4013 31.1893 17.4013 31.9999C17.4013 32.0506 17.4038 32.1006 17.4086 32.15C17.4038 32.1006 17.4014 32.0506 17.4014 31.9999C17.4014 31.1893 18.0303 30.5322 18.806 30.5322H31.9498C32.0414 30.5322 32.1308 30.5413 32.2175 30.5588C32.1308 30.5413 32.0413 30.5321 31.9498 30.5321H18.806ZM42.4849 24.9758C43.2607 24.9758 43.8896 25.6329 43.8896 26.4435C43.8896 26.9001 43.6901 27.3079 43.3773 27.5771C43.6901 27.3079 43.8896 26.9 43.8896 26.4435C43.8896 25.6329 43.2607 24.9758 42.485 24.9758H31.5485C31.4509 24.9758 31.3556 24.9862 31.2636 25.006C31.3556 24.9862 31.4509 24.9758 31.5484 24.9758H42.4849ZM31.5485 28.3306H42.485C43.4824 28.3306 44.291 27.4857 44.291 26.4435C44.291 25.4013 43.4824 24.5564 42.485 24.5564H31.5485C30.5511 24.5564 29.7425 25.4013 29.7425 26.4435C29.7425 27.4857 30.5511 28.3306 31.5485 28.3306ZM21.5151 36.0885H29.6422C30.418 36.0885 31.0469 36.7457 31.0469 37.5563C31.0469 37.6472 31.0389 37.7362 31.0238 37.8226C31.0389 37.7362 31.0468 37.6472 31.0468 37.5563C31.0468 36.7457 30.4179 36.0886 29.6421 36.0886H21.5151C21.4351 36.0886 21.3568 36.0956 21.2805 36.1089C21.3568 36.0955 21.4352 36.0885 21.5151 36.0885ZM29.6422 39.4434H21.5151C20.5177 39.4434 19.7091 38.5985 19.7091 37.5563C19.7091 36.5141 20.5177 35.6692 21.5151 35.6692H29.6422C30.6396 35.6692 31.4482 36.5141 31.4482 37.5563C31.4482 38.5985 30.6396 39.4434 29.6422 39.4434ZM42.4849 36.0886C43.2607 36.0886 43.8896 36.7457 43.8896 37.5563C43.8896 37.689 43.8727 37.8175 43.8412 37.9398C43.8728 37.8175 43.8896 37.689 43.8896 37.5563C43.8896 36.7457 43.2607 36.0885 42.485 36.0885H34.7592C34.6735 36.0885 34.5896 36.0966 34.5081 36.112C34.5896 36.0966 34.6735 36.0886 34.7591 36.0886H42.4849ZM34.7592 39.4434H42.485C43.4824 39.4434 44.291 38.5985 44.291 37.5563C44.291 36.5141 43.4824 35.6692 42.485 35.6692H34.7592C33.7618 35.6692 32.9532 36.5141 32.9532 37.5563C32.9532 38.5985 33.7618 39.4434 34.7592 39.4434ZM34.2577 21.4335C34.1928 21.2646 34.1572 21.0802 34.1572 20.8871C34.1572 20.0765 34.7861 19.4194 35.5618 19.4194H37.5685C37.7867 19.4194 37.9933 19.4714 38.1776 19.5641C37.9934 19.4714 37.7868 19.4194 37.5686 19.4194H35.5619C34.7861 19.4194 34.1572 20.0765 34.1572 20.8871C34.1572 21.0802 34.1929 21.2646 34.2577 21.4335ZM35.5618 22.7742H37.5685C38.566 22.7742 39.3745 21.9293 39.3745 20.8871C39.3745 19.8449 38.566 19 37.5685 19H35.5618C34.5644 19 33.7558 19.8449 33.7558 20.8871C33.7558 21.9293 34.5644 22.7742 35.5618 22.7742ZM38.9104 43.5481C38.733 44.1463 38.1993 44.5807 37.5685 44.5807H33.3545C32.5787 44.5807 31.9498 43.9236 31.9498 43.113C31.9498 43.029 31.9565 42.9467 31.9695 42.8666C31.9566 42.9466 31.9498 43.0289 31.9498 43.1127C31.9498 43.9233 32.5787 44.5805 33.3545 44.5805H37.5686C38.1993 44.5805 38.7329 44.1461 38.9104 43.5481ZM33.3545 45.0001H37.5685C38.566 45.0001 39.3745 44.1552 39.3745 43.113C39.3745 42.0708 38.566 41.2259 37.5685 41.2259H33.3545C32.357 41.2259 31.5485 42.0708 31.5485 43.113C31.5485 44.1552 32.357 45.0001 33.3545 45.0001ZM25.1691 42.7555C25.1417 42.8698 25.1272 42.9895 25.1272 43.1127C25.1272 43.9233 25.7561 44.5805 26.5318 44.5805H28.5385C29.1734 44.5805 29.7098 44.1404 29.8838 43.5364C29.7099 44.1406 29.1734 44.5807 28.5385 44.5807H26.5318C25.756 44.5807 25.1271 43.9236 25.1271 43.113C25.1271 42.9897 25.1417 42.8699 25.1691 42.7555ZM28.5385 45.0001H26.5318C25.5343 45.0001 24.7258 44.1552 24.7258 43.113C24.7258 42.0708 25.5343 41.2259 26.5318 41.2259H28.5385C29.5359 41.2259 30.3445 42.0708 30.3445 43.113C30.3445 44.1552 29.5359 45.0001 28.5385 45.0001Z" fill="white"/>
</g>
</svg>
