<svg width="14" height="14" viewBox="0 0 14 14" fill="none" xmlns="http://www.w3.org/2000/svg">
<mask id="mask0_9529_25" style="mask-type:alpha" maskUnits="userSpaceOnUse" x="0" y="0" width="14" height="14">
<rect width="14" height="14" fill="#D9D9D9"/>
</mask>
<g mask="url(#mask0_9529_25)">
<path d="M2.51277 12.5417C2.21809 12.5417 1.96867 12.4396 1.7645 12.2354C1.56034 12.0312 1.45825 11.7818 1.45825 11.4871V6.01285C1.45825 5.71817 1.56034 5.46874 1.7645 5.26458C1.96867 5.06041 2.21809 4.95833 2.51277 4.95833H3.67944V1.98566C3.67944 1.83623 3.73014 1.71101 3.83154 1.61C3.93285 1.50888 4.05846 1.45833 4.20838 1.45833H7.382C7.53182 1.45833 7.65704 1.50888 7.75767 1.61C7.85829 1.71101 7.90861 1.83623 7.90861 1.98566V3.15233C7.90861 3.30166 7.85805 3.42683 7.75694 3.52785C7.65593 3.62896 7.5307 3.67952 7.38127 3.67952H4.55444V7.52718C4.55444 7.7084 4.61559 7.86027 4.7379 7.98277C4.8603 8.10536 5.01197 8.16666 5.1929 8.16666C5.37373 8.16666 5.52569 8.10536 5.64877 7.98277C5.77176 7.86027 5.83325 7.7084 5.83325 7.52718V4.95833H11.4871C11.7817 4.95833 12.0312 5.06041 12.2353 5.26458C12.4395 5.46874 12.5416 5.71817 12.5416 6.01285V11.4871C12.5416 11.7818 12.4395 12.0312 12.2353 12.2354C12.0312 12.4396 11.7817 12.5417 11.4871 12.5417H2.51277Z" fill="#1C1B1F"/>
</g>
</svg>
