<svg width="20" height="22" viewBox="0 0 20 22" fill="none" xmlns="http://www.w3.org/2000/svg">
    <path
        d="M13.9604 9.83002H10.9004L10.1404 12.12H12.4304C13.2704 12.12 13.9604 12.8 13.9604 13.65C13.9604 14.49 13.2804 15.18 12.4304 15.18H10.1404M7.54034 15.17V9.83002L6.04034 11.5M8.02039 3.46997L10.0004 1M2.91034 6.79999C1.80034 8.27999 1.11035 10.11 1.11035 12.11C1.11035 17.02 5.09037 21 10.0004 21C14.9104 21 18.8904 17.02 18.8904 12.11C18.8904 7.19999 14.9104 3.21997 10.0004 3.21997C9.32037 3.21997 8.66039 3.31002 8.02039 3.46002"
        stroke="white" stroke-width="1.5" stroke-linecap="round" stroke-linejoin="round" />
</svg>
