<svg width="14" height="14" viewBox="0 0 14 14" fill="none" xmlns="http://www.w3.org/2000/svg">
<mask id="mask0_9529_58" style="mask-type:alpha" maskUnits="userSpaceOnUse" x="0" y="0" width="14" height="14">
<rect width="14" height="14" fill="#D9D9D9"/>
</mask>
<g mask="url(#mask0_9529_58)">
<path d="M3.0321 12.3846C2.54842 12.3846 2.18953 12.2861 1.95541 12.089C1.7213 11.8919 1.60425 11.5963 1.60425 11.2022C1.60425 10.6811 1.82402 10.3487 2.26356 10.205C2.7031 10.0612 3.22339 9.9893 3.82441 9.9893H4.10923V9.23461C4.10923 8.92914 4.10437 8.67981 4.09464 8.48663C4.08492 8.29355 4.05736 8.1343 4.01196 8.00888C3.96665 7.88356 3.91449 7.79626 3.85548 7.74696C3.79656 7.69767 3.71922 7.67303 3.62346 7.67303C3.53975 7.67303 3.46494 7.68644 3.39902 7.71328C3.3331 7.74001 3.27817 7.77574 3.23423 7.82047C3.19913 7.86509 3.17672 7.91195 3.167 7.96105C3.15728 8.01015 3.16214 8.06148 3.18158 8.11505C3.23476 8.21392 3.29684 8.31051 3.36781 8.40482C3.43878 8.49912 3.47427 8.60918 3.47427 8.73499C3.47427 8.95967 3.39576 9.15051 3.23875 9.30753C3.08164 9.46454 2.89094 9.54305 2.66664 9.54305C2.44226 9.54305 2.25155 9.46479 2.09454 9.30826C1.93743 9.15163 1.85887 8.96147 1.85887 8.73776C1.85887 8.49616 1.91273 8.2986 2.02046 8.14509C2.12818 7.99158 2.27401 7.86966 2.45796 7.77934C2.6419 7.68902 2.85506 7.62631 3.09744 7.59121C3.33971 7.55602 3.59993 7.53842 3.87808 7.53842C4.64098 7.53842 5.1707 7.67453 5.46723 7.94676C5.76376 8.21898 5.91202 8.70096 5.91202 9.39269V11.3735C5.91202 11.5443 5.93292 11.6706 5.97473 11.7524C6.01663 11.8344 6.08619 11.8754 6.18341 11.8754C6.28948 11.8754 6.37562 11.7935 6.44183 11.6296C6.50814 11.4658 6.55043 11.2142 6.56871 10.8747H6.71964C6.69262 11.4319 6.58684 11.8229 6.40231 12.0476C6.21778 12.2723 5.90944 12.3846 5.47729 12.3846C5.09025 12.3846 4.78696 12.3246 4.56744 12.2045C4.348 12.0845 4.208 11.9026 4.14744 11.6588C4.0578 11.9187 3.92562 12.1046 3.75091 12.2166C3.5763 12.3286 3.3367 12.3846 3.0321 12.3846ZM8.05096 12.3846C7.86789 12.3846 7.72215 12.31 7.61375 12.1608C7.50525 12.0116 7.48678 11.8518 7.55833 11.6814L8.92625 8.0624C8.98682 7.90831 9.08535 7.78245 9.22185 7.68484C9.35825 7.58723 9.51133 7.53842 9.68108 7.53842C9.85093 7.53842 10.0041 7.58723 10.1405 7.68484C10.277 7.78245 10.3755 7.90831 10.4361 8.0624L11.804 11.6814C11.8755 11.8518 11.8571 12.0116 11.7486 12.1608C11.6402 12.31 11.4946 12.3846 11.3118 12.3846C11.2021 12.3846 11.1025 12.3532 11.0128 12.2904C10.9232 12.2277 10.856 12.1425 10.8111 12.0349L10.5421 11.255H8.82081L8.55204 12.0349C8.51616 12.1336 8.45346 12.2165 8.36391 12.2837C8.27437 12.351 8.17005 12.3846 8.05096 12.3846ZM3.69331 11.9954C3.81056 11.9954 3.90919 11.9033 3.98921 11.719C4.06922 11.5348 4.10923 11.3124 4.10923 11.0518V10.1488C3.87589 10.1488 3.70537 10.2185 3.59764 10.358C3.49002 10.4974 3.43621 10.7245 3.43621 11.0393V11.1878C3.43621 11.5115 3.45424 11.727 3.49031 11.8344C3.52638 11.9417 3.59405 11.9954 3.69331 11.9954ZM9.17183 10.3126H10.2051L9.68108 8.77917L9.17183 10.3126ZM8.67337 6.47617C8.24287 6.47617 7.89939 6.32548 7.64291 6.02409C7.38635 5.7227 7.25806 5.31675 7.25806 4.80624C7.25806 3.87485 7.55366 3.11019 8.14487 2.51228C8.73608 1.91436 9.49519 1.6154 10.4222 1.6154C10.8002 1.6154 11.1053 1.65803 11.3375 1.7433C11.5697 1.82856 11.6859 1.93852 11.6859 2.07317C11.6859 2.12694 11.6771 2.18021 11.6595 2.23301C11.6419 2.2857 11.6106 2.33635 11.5657 2.38496C11.5171 2.44553 11.46 2.48948 11.3945 2.5168C11.3289 2.54412 11.261 2.54805 11.191 2.52861C11.0653 2.49264 10.9217 2.46119 10.7601 2.43426C10.5984 2.40742 10.4503 2.39401 10.3156 2.39401C9.67802 2.39401 9.16609 2.60935 8.77983 3.04005C8.39357 3.47084 8.20044 4.04071 8.20044 4.74965C8.20044 4.94487 8.23558 5.15074 8.30587 5.36726C8.37616 5.58377 8.53809 5.69203 8.79164 5.69203C8.88731 5.69203 8.98244 5.67054 9.07704 5.62757C9.17164 5.5845 9.25598 5.52111 9.33006 5.4374C9.48328 5.27611 9.62523 5.00729 9.75589 4.63094C9.88656 4.2546 10.006 3.7976 10.1142 3.25996C10.132 3.14164 10.1789 3.0575 10.2548 3.00753C10.3307 2.95746 10.4357 2.93242 10.5696 2.93242C10.7304 2.93242 10.8533 2.97578 10.9382 3.06251C11.023 3.14923 11.0474 3.25564 11.0114 3.38174C10.9031 3.76868 10.825 4.10512 10.7772 4.39105C10.7293 4.67688 10.7054 4.93593 10.7054 5.16819C10.7054 5.34883 10.7298 5.47979 10.7785 5.56107C10.8273 5.64235 10.9005 5.68299 10.9981 5.68299C11.0974 5.68299 11.1943 5.64599 11.289 5.57201C11.3837 5.49792 11.516 5.36332 11.6859 5.16819C11.7053 5.13903 11.7724 5.10869 11.8872 5.07719C11.9578 5.07719 12.0116 5.10417 12.0487 5.15813C12.0857 5.21209 12.1042 5.28851 12.1042 5.38738C12.1042 5.63909 11.9607 5.88103 11.6735 6.11319C11.3863 6.34546 11.0856 6.46159 10.7715 6.46159C10.5381 6.46159 10.3381 6.3982 10.1714 6.27142C10.0046 6.14464 9.89098 5.9661 9.83041 5.73578C9.69586 5.96911 9.5299 6.15082 9.33254 6.2809C9.13528 6.41108 8.91555 6.47617 8.67337 6.47617ZM2.14281 6.46159V3.49738C2.14281 2.97637 2.32622 2.53245 2.69304 2.16563C3.05986 1.79881 3.50465 1.6154 4.02741 1.6154C4.55008 1.6154 4.99482 1.79881 5.36164 2.16563C5.72856 2.53245 5.91202 2.97637 5.91202 3.49738V6.46159H4.83504V5.38374H3.21964V6.46159H2.14281ZM3.21964 4.30778H4.83504V3.50001C4.83504 3.27562 4.75653 3.08492 4.59952 2.9279C4.44241 2.77089 4.25171 2.69238 4.02741 2.69238C3.80303 2.69238 3.61228 2.77089 3.45516 2.9279C3.29815 3.08492 3.21964 3.27562 3.21964 3.50001V4.30778Z" fill="#1C1B1F"/>
</g>
</svg>
