<svg width="10" height="10" viewBox="0 0 10 10" fill="none" xmlns="http://www.w3.org/2000/svg">
<path id="Verified" d="M10 5.23438C10 5.58398 9.91602 5.9082 9.74805 6.20508C9.58008 6.50195 9.35547 6.73438 9.07227 6.89648C9.08008 6.94922 9.08398 7.03125 9.08398 7.14258C9.08398 7.67188 8.90625 8.12109 8.55469 8.49219C8.20117 8.86523 7.77539 9.05078 7.27734 9.05078C7.05469 9.05078 6.8418 9.00977 6.64063 8.92773C6.48438 9.24805 6.25977 9.50586 5.96484 9.70312C5.67188 9.90234 5.34961 10 5 10C4.64258 10 4.31836 9.9043 4.0293 9.70898C3.73828 9.51562 3.51562 9.25586 3.35938 8.92773C3.1582 9.00977 2.94727 9.05078 2.72266 9.05078C2.22461 9.05078 1.79688 8.86523 1.43945 8.49219C1.08203 8.12109 0.904297 7.66992 0.904297 7.14258C0.904297 7.08398 0.912109 7.00195 0.925781 6.89648C0.642578 6.73242 0.417969 6.50195 0.25 6.20508C0.0839844 5.9082 0 5.58398 0 5.23438C0 4.86328 0.09375 4.52148 0.279297 4.21289C0.464844 3.9043 0.714844 3.67578 1.02734 3.52734C0.945312 3.30469 0.904297 3.08008 0.904297 2.85742C0.904297 2.33008 1.08203 1.87891 1.43945 1.50781C1.79688 1.13672 2.22461 0.949219 2.72266 0.949219C2.94531 0.949219 3.1582 0.990234 3.35938 1.07227C3.51562 0.751953 3.74023 0.494141 4.03516 0.296875C4.32812 0.0996094 4.65039 0 5 0C5.34961 0 5.67188 0.0996094 5.96484 0.294922C6.25781 0.492188 6.48438 0.75 6.64063 1.07031C6.8418 0.988281 7.05273 0.947266 7.27734 0.947266C7.77539 0.947266 8.20117 1.13281 8.55469 1.50586C8.9082 1.87891 9.08398 2.32812 9.08398 2.85547C9.08398 3.10156 9.04688 3.32422 8.97266 3.52539C9.28516 3.67383 9.53516 3.90234 9.7207 4.21094C9.90625 4.52148 10 4.86328 10 5.23438ZM4.78711 6.74023L6.85156 3.64844C6.9043 3.56641 6.91992 3.47656 6.90234 3.38086C6.88281 3.28516 6.83398 3.20898 6.75195 3.1582C6.66992 3.10547 6.58008 3.08789 6.48438 3.10156C6.38672 3.11719 6.30859 3.16406 6.25 3.24609L4.43164 5.98047L3.59375 5.14453C3.51953 5.07031 3.43359 5.03516 3.33789 5.03906C3.24023 5.04297 3.15625 5.07812 3.08203 5.14453C3.01562 5.21094 2.98242 5.29492 2.98242 5.39648C2.98242 5.49609 3.01562 5.58008 3.08203 5.64844L4.23242 6.79883L4.28906 6.84375C4.35547 6.88867 4.42383 6.91016 4.49023 6.91016C4.62109 6.9082 4.7207 6.85352 4.78711 6.74023Z" fill="#1DA1F2"/>
</svg>
