<svg width="23" height="16" viewBox="0 0 23 16" fill="none" xmlns="http://www.w3.org/2000/svg">
<g clip-path="url(#clip0_5076_12558)">
<path d="M22.521 2.49859C22.2559 1.51458 21.4778 0.741298 20.4876 0.477893C18.6927 0 11.5 0 11.5 0C11.5 0 4.30729 0 2.51432 0.477893C1.52412 0.741298 0.745966 1.51458 0.480902 2.49859C0 4.28034 0 8 0 8C0 8 0 11.7197 0.480902 13.5014C0.745966 14.4854 1.52412 15.2587 2.51432 15.5221C4.30729 16 11.5 16 11.5 16C11.5 16 18.6927 16 20.4857 15.5221C21.4759 15.2587 22.254 14.4854 22.5191 13.5014C23 11.7197 23 8 23 8C23 8 23 4.28034 22.5191 2.49859H22.521Z" fill="#FF0000"/>
<path d="M9.19962 11.4278L15.1768 7.99981L9.19962 4.57178V11.4278Z" fill="white"/>
</g>
<defs>
<clipPath id="clip0_5076_12558">
<rect width="23" height="16" fill="white"/>
</clipPath>
</defs>
</svg>
