<svg width="14" height="14" viewBox="0 0 14 14" fill="none" xmlns="http://www.w3.org/2000/svg">
<mask id="mask0_9540_45" style="mask-type:alpha" maskUnits="userSpaceOnUse" x="0" y="0" width="14" height="14">
<rect width="14" height="14" fill="#D9D9D9"/>
</mask>
<g mask="url(#mask0_9540_45)">
<path d="M5.13135 11.705V11.2019H4.04489C3.85871 11.2019 3.70155 11.1378 3.57341 11.0098C3.44537 10.8817 3.38135 10.7245 3.38135 10.5383C3.38135 10.3521 3.44537 10.195 3.57341 10.0668C3.70155 9.9388 3.85871 9.87478 4.04489 9.87478H4.54801V4.12516H4.04489C3.85871 4.12516 3.70155 4.06114 3.57341 3.9331C3.44537 3.80496 3.38135 3.6478 3.38135 3.46162C3.38135 3.27544 3.44537 3.11828 3.57341 2.99014C3.70155 2.8621 3.85871 2.79808 4.04489 2.79808H5.13135V2.29495C5.13135 2.10877 5.19537 1.95161 5.32341 1.82347C5.45155 1.69543 5.60871 1.63141 5.79489 1.63141C5.98107 1.63141 6.13823 1.69543 6.26637 1.82347C6.39441 1.95161 6.45843 2.10877 6.45843 2.29495V2.79808H7.54139V2.29495C7.54139 2.10877 7.60541 1.95161 7.73345 1.82347C7.86159 1.69543 8.01875 1.63141 8.20493 1.63141C8.39111 1.63141 8.54827 1.69543 8.67641 1.82347C8.80445 1.95161 8.86847 2.10877 8.86847 2.29495V2.89185C9.3857 3.04196 9.80958 3.33114 10.1401 3.75941C10.4707 4.18777 10.636 4.67879 10.636 5.23247C10.636 5.50985 10.5896 5.77794 10.497 6.03674C10.4044 6.29555 10.2742 6.52815 10.1062 6.73455C10.4418 6.94805 10.7112 7.2333 10.9144 7.5903C11.1177 7.9473 11.2193 8.33969 11.2193 8.76747C11.2193 9.42537 10.9908 9.99033 10.5339 10.4623C10.0769 10.9345 9.52181 11.1786 8.86847 11.1949V11.705C8.86847 11.8912 8.80445 12.0483 8.67641 12.1765C8.54827 12.3045 8.39111 12.3685 8.20493 12.3685C8.01875 12.3685 7.86159 12.3045 7.73345 12.1765C7.60541 12.0483 7.54139 11.8912 7.54139 11.705V11.2019H6.45843V11.705C6.45843 11.8912 6.39441 12.0483 6.26637 12.1765C6.13823 12.3045 5.98107 12.3685 5.79489 12.3685C5.60871 12.3685 5.45155 12.3045 5.32341 12.1765C5.19537 12.0483 5.13135 11.8912 5.13135 11.705ZM5.8751 6.33643H8.20493C8.50953 6.33643 8.76965 6.22861 8.98529 6.01297C9.20102 5.79724 9.30889 5.53707 9.30889 5.23247C9.30889 4.92797 9.20102 4.66727 8.98529 4.45037C8.76965 4.23356 8.50953 4.12516 8.20493 4.12516H5.8751V6.33643ZM5.8751 9.87478H8.78826C9.09286 9.87478 9.35298 9.76638 9.56862 9.54957C9.78436 9.33267 9.89222 9.07197 9.89222 8.76747C9.89222 8.46287 9.78436 8.20271 9.56862 7.98697C9.35298 7.77133 9.09286 7.66351 8.78826 7.66351H5.8751V9.87478Z" fill="#1C1B1F"/>
</g>
</svg>
