<svg width="14" height="14" viewBox="0 0 14 14" fill="none" xmlns="http://www.w3.org/2000/svg">
<path d="M2.1875 11.4688C2.1875 12.0381 2.64941 12.5 3.21875 12.5H10.7812C11.3506 12.5 11.8125 12.0381 11.8125 11.4688V5.625H2.1875V11.4688ZM9.0625 7.25781C9.0625 7.11602 9.17852 7 9.32031 7H10.1797C10.3215 7 10.4375 7.11602 10.4375 7.25781V8.11719C10.4375 8.25898 10.3215 8.375 10.1797 8.375H9.32031C9.17852 8.375 9.0625 8.25898 9.0625 8.11719V7.25781ZM9.0625 10.0078C9.0625 9.86602 9.17852 9.75 9.32031 9.75H10.1797C10.3215 9.75 10.4375 9.86602 10.4375 10.0078V10.8672C10.4375 11.009 10.3215 11.125 10.1797 11.125H9.32031C9.17852 11.125 9.0625 11.009 9.0625 10.8672V10.0078ZM6.3125 7.25781C6.3125 7.11602 6.42852 7 6.57031 7H7.42969C7.57148 7 7.6875 7.11602 7.6875 7.25781V8.11719C7.6875 8.25898 7.57148 8.375 7.42969 8.375H6.57031C6.42852 8.375 6.3125 8.25898 6.3125 8.11719V7.25781ZM6.3125 10.0078C6.3125 9.86602 6.42852 9.75 6.57031 9.75H7.42969C7.57148 9.75 7.6875 9.86602 7.6875 10.0078V10.8672C7.6875 11.009 7.57148 11.125 7.42969 11.125H6.57031C6.42852 11.125 6.3125 11.009 6.3125 10.8672V10.0078ZM3.5625 7.25781C3.5625 7.11602 3.67852 7 3.82031 7H4.67969C4.82148 7 4.9375 7.11602 4.9375 7.25781V8.11719C4.9375 8.25898 4.82148 8.375 4.67969 8.375H3.82031C3.67852 8.375 3.5625 8.25898 3.5625 8.11719V7.25781ZM3.5625 10.0078C3.5625 9.86602 3.67852 9.75 3.82031 9.75H4.67969C4.82148 9.75 4.9375 9.86602 4.9375 10.0078V10.8672C4.9375 11.009 4.82148 11.125 4.67969 11.125H3.82031C3.67852 11.125 3.5625 11.009 3.5625 10.8672V10.0078ZM10.7812 2.875H9.75V1.84375C9.75 1.65469 9.59531 1.5 9.40625 1.5H8.71875C8.52969 1.5 8.375 1.65469 8.375 1.84375V2.875H5.625V1.84375C5.625 1.65469 5.47031 1.5 5.28125 1.5H4.59375C4.40469 1.5 4.25 1.65469 4.25 1.84375V2.875H3.21875C2.64941 2.875 2.1875 3.33691 2.1875 3.90625V4.9375H11.8125V3.90625C11.8125 3.33691 11.3506 2.875 10.7812 2.875Z" fill="#1C1B1F"/>
</svg>
