<svg width="19" height="19" viewBox="0 0 19 19" fill="none" xmlns="http://www.w3.org/2000/svg">
<path d="M7.69676 3.60648L7.1294 5.13924C6.38611 7.14919 6.01447 8.15417 5.28108 8.88756C4.54769 9.62095 3.54271 9.99259 1.53275 10.7359L0 11.3032L1.53275 11.8706C3.54271 12.6139 4.54769 12.9866 5.28108 13.7189C6.01447 14.4512 6.38611 15.4573 7.1294 17.4672L7.69676 19L8.26412 17.4672C9.00741 15.4573 9.38015 14.4523 10.1124 13.7189C10.8447 12.9855 11.8508 12.6139 13.8608 11.8706L15.3935 11.3032L13.8608 10.7359C11.8508 9.99259 10.8458 9.62095 10.1124 8.88756C9.37905 8.15417 9.00741 7.14919 8.26412 5.13924L7.69676 3.60648ZM15.7014 0L15.4584 0.656423C15.1395 1.51846 14.9801 1.94948 14.6667 2.26285C14.3523 2.57731 13.9212 2.73675 13.0592 3.05451L12.4028 3.29861L13.0603 3.54161C13.9212 3.86047 14.3523 4.01991 14.6656 4.33328C14.9801 4.64774 15.1395 5.07876 15.4573 5.9408L15.7014 6.59722L15.9444 5.9408C16.2633 5.07876 16.4227 4.64774 16.7361 4.33437C17.0505 4.01991 17.4815 3.86047 18.3436 3.54271L19 3.29861L18.3425 3.05561C17.4815 2.73675 17.0505 2.57731 16.7372 2.26395C16.4227 1.94948 16.2633 1.51846 15.9455 0.656423L15.7014 0Z" fill="white"/>
</svg>
