<svg width="14" height="14" viewBox="0 0 14 14" fill="none" xmlns="http://www.w3.org/2000/svg">
<mask id="mask0_2337_2442" style="mask-type:alpha" maskUnits="userSpaceOnUse" x="0" y="0" width="14" height="14">
<rect width="14" height="14" fill="#D9D9D9"/>
</mask>
<g mask="url(#mask0_2337_2442)">
<path d="M7.00001 6.28532L4.72501 8.56032C4.61806 8.66726 4.48195 8.72074 4.31667 8.72074C4.1514 8.72074 4.01529 8.66726 3.90834 8.56032C3.8014 8.45337 3.74792 8.31726 3.74792 8.15199C3.74792 7.98671 3.8014 7.8506 3.90834 7.74365L6.59167 5.06032C6.65001 5.00199 6.7132 4.96067 6.78126 4.93636C6.84931 4.91206 6.92223 4.8999 7.00001 4.8999C7.07779 4.8999 7.1507 4.91206 7.21876 4.93636C7.28681 4.96067 7.35001 5.00199 7.40834 5.06032L10.0917 7.74365C10.1986 7.8506 10.2521 7.98671 10.2521 8.15199C10.2521 8.31726 10.1986 8.45337 10.0917 8.56032C9.98473 8.66726 9.84862 8.72074 9.68334 8.72074C9.51806 8.72074 9.38195 8.66726 9.27501 8.56032L7.00001 6.28532Z" fill="white"/>
</g>
</svg>
