<svg width="14" height="14" viewBox="0 0 14 14" fill="none" xmlns="http://www.w3.org/2000/svg">
<mask id="mask0_9540_27" style="mask-type:alpha" maskUnits="userSpaceOnUse" x="0" y="0" width="14" height="14">
<rect width="14" height="14" fill="#D9D9D9"/>
</mask>
<g mask="url(#mask0_9540_27)">
<path d="M2.51277 11.9583C2.21809 11.9583 1.96867 11.8562 1.7645 11.6521C1.56034 11.4479 1.45825 11.1985 1.45825 10.9038V4.84619C1.45825 4.55151 1.56034 4.30208 1.7645 4.09792C1.96867 3.89375 2.21809 3.79167 2.51277 3.79167H4.95825V2.80452C4.95825 2.50984 5.06034 2.26042 5.2645 2.05625C5.46867 1.85208 5.71809 1.75 6.01277 1.75H7.98706C8.28174 1.75 8.53117 1.85208 8.73534 2.05625C8.9395 2.26042 9.04159 2.50984 9.04159 2.80452V3.79167H11.4871C11.7817 3.79167 12.0312 3.89375 12.2353 4.09792C12.4395 4.30208 12.5416 4.55151 12.5416 4.84619V10.9038C12.5416 11.1985 12.4395 11.4479 12.2353 11.6521C12.0312 11.8562 11.7817 11.9583 11.4871 11.9583H2.51277ZM5.83325 3.79167H8.16659V2.80452C8.16659 2.7596 8.14787 2.71848 8.11044 2.68115C8.07311 2.64371 8.03198 2.625 7.98706 2.625H6.01277C5.96786 2.625 5.92673 2.64371 5.8894 2.68115C5.85197 2.71848 5.83325 2.7596 5.83325 2.80452V3.79167Z" fill="#1C1B1F"/>
</g>
</svg>
