<svg width="20" height="20" viewBox="0 0 20 20" fill="none" xmlns="http://www.w3.org/2000/svg">
<path d="M10 0C8.02219 0 6.08879 0.58649 4.4443 1.6853C2.79981 2.78412 1.51809 4.3459 0.761209 6.17316C0.00433284 8.00042 -0.1937 10.0111 0.192152 11.9509C0.578004 13.8907 1.53041 15.6725 2.92894 17.0711C4.32746 18.4696 6.10929 19.422 8.0491 19.8078C9.98891 20.1937 11.9996 19.9957 13.8268 19.2388C15.6541 18.4819 17.2159 17.2002 18.3147 15.5557C19.4135 13.9112 20 11.9778 20 10C19.9972 7.34869 18.9427 4.80678 17.068 2.93202C15.1932 1.05727 12.6513 0.00279983 10 0ZM6.53846 6.92308C6.76667 6.92308 6.98976 6.99075 7.17951 7.11753C7.36926 7.24432 7.51715 7.42453 7.60448 7.63536C7.69181 7.8462 7.71466 8.0782 7.67014 8.30203C7.62562 8.52585 7.51573 8.73145 7.35436 8.89281C7.19299 9.05418 6.98739 9.16407 6.76357 9.2086C6.53974 9.25312 6.30774 9.23027 6.09691 9.14294C5.88607 9.0556 5.70586 8.90771 5.57908 8.71796C5.45229 8.52821 5.38462 8.30513 5.38462 8.07692C5.38462 7.7709 5.50618 7.47742 5.72257 7.26103C5.93896 7.04464 6.23245 6.92308 6.53846 6.92308ZM14.5115 12.6923C13.5221 14.4029 11.8779 15.3846 10 15.3846C8.12212 15.3846 6.47789 14.4038 5.48846 12.6923C5.43281 12.6048 5.39544 12.5068 5.3786 12.4045C5.36176 12.3021 5.36581 12.1974 5.39049 12.0966C5.41517 11.9959 5.45998 11.9011 5.52222 11.8181C5.58447 11.7351 5.66285 11.6656 5.75267 11.6137C5.84249 11.5617 5.94189 11.5285 6.04487 11.516C6.14786 11.5035 6.25232 11.512 6.35195 11.5409C6.45159 11.5698 6.54435 11.6185 6.62466 11.6842C6.70496 11.7499 6.77114 11.8311 6.81923 11.9231C7.5375 13.1644 8.66635 13.8462 10 13.8462C11.3337 13.8462 12.4625 13.1635 13.1808 11.9231C13.2289 11.8311 13.295 11.7499 13.3753 11.6842C13.4557 11.6185 13.5484 11.5698 13.6481 11.5409C13.7477 11.512 13.8521 11.5035 13.9551 11.516C14.0581 11.5285 14.1575 11.5617 14.2473 11.6137C14.3372 11.6656 14.4155 11.7351 14.4778 11.8181C14.54 11.9011 14.5848 11.9959 14.6095 12.0966C14.6342 12.1974 14.6382 12.3021 14.6214 12.4045C14.6046 12.5068 14.5672 12.6048 14.5115 12.6923ZM13.4615 9.23077C13.2333 9.23077 13.0102 9.1631 12.8205 9.03631C12.6307 8.90952 12.4829 8.72932 12.3955 8.51848C12.3082 8.30764 12.2853 8.07564 12.3299 7.85182C12.3744 7.62799 12.4843 7.4224 12.6456 7.26103C12.807 7.09966 13.0126 6.98977 13.2364 6.94525C13.4603 6.90072 13.6923 6.92357 13.9031 7.01091C14.1139 7.09824 14.2941 7.24613 14.4209 7.43588C14.5477 7.62563 14.6154 7.84871 14.6154 8.07692C14.6154 8.38294 14.4938 8.67643 14.2774 8.89281C14.061 9.1092 13.7676 9.23077 13.4615 9.23077Z" fill="#4FBB6D"/>
</svg>
