<svg width="14" height="14" viewBox="0 0 14 14" fill="none" xmlns="http://www.w3.org/2000/svg">
<mask id="mask0_9540_23" style="mask-type:alpha" maskUnits="userSpaceOnUse" x="0" y="0" width="14" height="14">
<rect width="14" height="14" fill="#D9D9D9"/>
</mask>
<g mask="url(#mask0_9540_23)">
<path d="M0.729248 11.2291V10.3418C0.729248 10.2273 0.751123 10.1166 0.794873 10.0095C0.838526 9.9025 0.900408 9.80834 0.980519 9.72706L1.89591 8.81167V5.18931L1.03666 4.32904C0.940901 4.23328 0.865748 4.12094 0.811206 3.99202C0.756567 3.8631 0.729248 3.72753 0.729248 3.58529V2.33331C0.729248 2.20935 0.771199 2.10547 0.855102 2.02167C0.939005 1.93776 1.04294 1.89581 1.16689 1.89581C1.29095 1.89581 1.39483 1.93776 1.47854 2.02167C1.56235 2.10547 1.60425 2.20935 1.60425 2.33331V3.06248H3.06258V2.33331C3.06258 2.20935 3.10453 2.10547 3.18844 2.02167C3.27234 1.93776 3.37627 1.89581 3.50023 1.89581C3.62428 1.89581 3.72816 1.93776 3.81187 2.02167C3.89568 2.10547 3.93758 2.20935 3.93758 2.33331V3.06248H5.39592V2.33331C5.39592 2.20935 5.43787 2.10547 5.52177 2.02167C5.60567 1.93776 5.7096 1.89581 5.83356 1.89581C5.95762 1.89581 6.0615 1.93776 6.14521 2.02167C6.22901 2.10547 6.27092 2.20935 6.27092 2.33331V3.58529C6.27092 3.72753 6.2436 3.8631 6.18896 3.99202C6.13442 4.12094 6.05926 4.23328 5.9635 4.32904L5.10425 5.18829V5.97915H8.89592V5.18829L8.03667 4.32904C7.9409 4.23328 7.86575 4.12094 7.81121 3.99202C7.75657 3.8631 7.72925 3.72753 7.72925 3.58529V2.33331C7.72925 2.20935 7.7712 2.10547 7.8551 2.02167C7.93901 1.93776 8.04294 1.89581 8.16689 1.89581C8.29095 1.89581 8.39483 1.93776 8.47854 2.02167C8.56235 2.10547 8.60425 2.20935 8.60425 2.33331V3.06248H10.0626V2.33331C10.0626 2.20935 10.1045 2.10547 10.1884 2.02167C10.2723 1.93776 10.3763 1.89581 10.5002 1.89581C10.6243 1.89581 10.7282 1.93776 10.8119 2.02167C10.8957 2.10547 10.9376 2.20935 10.9376 2.33331V3.06248H12.3959V2.33331C12.3959 2.20935 12.4379 2.10547 12.5218 2.02167C12.6057 1.93776 12.7096 1.89581 12.8336 1.89581C12.9576 1.89581 13.0615 1.93776 13.1452 2.02167C13.229 2.10547 13.2709 2.20935 13.2709 2.33331V3.58529C13.2709 3.72753 13.2436 3.8631 13.189 3.99202C13.1344 4.12094 13.0593 4.23328 12.9635 4.32904L12.1042 5.18931V8.81167L13.0196 9.72706C13.0998 9.80834 13.1616 9.9025 13.2053 10.0095C13.249 10.1166 13.2709 10.2273 13.2709 10.3418V11.2291C13.2709 11.4677 13.1847 11.6732 13.0124 11.8456C12.84 12.018 12.6345 12.1041 12.3959 12.1041H8.83977C8.69044 12.1041 8.56521 12.0536 8.4641 11.9526C8.36309 11.8515 8.31258 11.7263 8.31258 11.577V10.5C8.31258 10.139 8.18396 9.83002 7.92671 9.57306C7.66946 9.31601 7.36024 9.18748 6.99906 9.18748C6.63778 9.18748 6.32886 9.31601 6.07229 9.57306C5.81582 9.83002 5.68758 10.139 5.68758 10.5V11.5742C5.68758 11.7263 5.63707 11.8527 5.53606 11.9532C5.43495 12.0538 5.30973 12.1041 5.16039 12.1041H1.60425C1.36566 12.1041 1.16019 12.018 0.987811 11.8456C0.815436 11.6732 0.729248 11.4677 0.729248 11.2291Z" fill="#1C1B1F"/>
</g>
</svg>
