<svg width="14" height="14" viewBox="0 0 14 14" fill="none" xmlns="http://www.w3.org/2000/svg">
<path d="M1.16675 4.66669V7.0006H1.75008V10.5H1.16675V12.25H10.5001L12.2501 12.2506L12.8334 12.25V10.5H12.2501V7.0006H12.8334V4.66669L7.00008 1.16669L1.16675 4.66669ZM3.50008 10.5V7.0006H4.66675V10.5H3.50008ZM6.41675 10.5V7.0006H7.58342V10.5H6.41675ZM10.5001 10.5H9.33342V7.0006H10.5001V10.5ZM8.16675 4.66669C8.16671 4.81993 8.13649 4.97167 8.07781 5.11324C8.01913 5.25481 7.93314 5.38343 7.82475 5.49177C7.71636 5.6001 7.58769 5.68603 7.4461 5.74464C7.3045 5.80325 7.15275 5.83339 6.9995 5.83335C6.84625 5.83332 6.69451 5.80309 6.55294 5.74441C6.41138 5.68573 6.28275 5.59974 6.17442 5.49135C6.06608 5.38296 5.98016 5.2543 5.92155 5.1127C5.86294 4.97111 5.83279 4.81935 5.83283 4.6661C5.83291 4.35661 5.95593 4.05982 6.17483 3.84103C6.39373 3.62223 6.69059 3.49936 7.00008 3.49944C7.30958 3.49951 7.60637 3.62254 7.82516 3.84144C8.04395 4.06034 8.16683 4.35719 8.16675 4.66669Z" fill="#1C1B1F"/>
</svg>
