<svg width="20" height="20" viewBox="0 0 20 20" fill="none" xmlns="http://www.w3.org/2000/svg">
<g id="public">
<mask id="mask0_1551_36" style="mask-type:alpha" maskUnits="userSpaceOnUse" x="0" y="0" width="20" height="20">
<rect id="Bounding box" width="20" height="20" fill="#D9D9D9"/>
</mask>
<g mask="url(#mask0_1551_36)">
<path id="public_2" d="M10.0028 17.5C8.96567 17.5 7.9906 17.3032 7.07758 16.9096C6.16457 16.516 5.37037 15.9818 4.69498 15.3071C4.0196 14.6323 3.48493 13.8389 3.09096 12.9267C2.69699 12.0145 2.5 11.0399 2.5 10.0028C2.5 8.96567 2.6968 7.9906 3.0904 7.07758C3.48401 6.16457 4.01819 5.37037 4.69294 4.69498C5.36769 4.0196 6.16114 3.48493 7.07329 3.09096C7.98546 2.69699 8.9601 2.5 9.99721 2.5C11.0343 2.5 12.0094 2.6968 12.9224 3.0904C13.8354 3.48401 14.6296 4.01819 15.305 4.69294C15.9804 5.36769 16.5151 6.16114 16.909 7.07329C17.303 7.98546 17.5 8.9601 17.5 9.99721C17.5 11.0343 17.3032 12.0094 16.9096 12.9224C16.516 13.8354 15.9818 14.6296 15.3071 15.305C14.6323 15.9804 13.8389 16.5151 12.9267 16.909C12.0145 17.303 11.0399 17.5 10.0028 17.5ZM9.16667 16.625V15C8.70833 15 8.31597 14.8368 7.98958 14.5104C7.66319 14.184 7.5 13.7917 7.5 13.3333V12.5L3.5 8.5C3.45833 8.75 3.42014 9 3.38542 9.25C3.35069 9.5 3.33333 9.75 3.33333 10C3.33333 11.6806 3.88542 13.1528 4.98958 14.4167C6.09375 15.6806 7.48611 16.4167 9.16667 16.625ZM14.9167 14.5C15.1944 14.1944 15.4444 13.8646 15.6667 13.5104C15.8889 13.1562 16.0729 12.7882 16.2187 12.4062C16.3646 12.0243 16.4757 11.6319 16.5521 11.2292C16.6285 10.8264 16.6667 10.4167 16.6667 10C16.6667 8.63083 16.2909 7.38042 15.5393 6.24877C14.7877 5.11712 13.7746 4.30129 12.5 3.80129V4.16667C12.5 4.625 12.3368 5.01736 12.0104 5.34375C11.684 5.67014 11.2917 5.83333 10.8333 5.83333H9.16667V7.5C9.16667 7.73611 9.08681 7.93403 8.92708 8.09375C8.76736 8.25347 8.56944 8.33333 8.33333 8.33333H6.66667V10H11.6667C11.9028 10 12.1007 10.0799 12.2604 10.2396C12.4201 10.3993 12.5 10.5972 12.5 10.8333V13.3333H13.3333C13.6944 13.3333 14.0208 13.441 14.3125 13.6562C14.6042 13.8715 14.8056 14.1528 14.9167 14.5Z" fill="#909BAA"/>
</g>
</g>
</svg>
