<svg width="14" height="15" viewBox="0 0 14 15" fill="none" xmlns="http://www.w3.org/2000/svg">
<mask id="mask0_7541_22801" style="mask-type:alpha" maskUnits="userSpaceOnUse" x="0" y="0" width="14" height="15">
<rect y="0.25" width="14" height="14" fill="#D9D9D9"/>
</mask>
<g mask="url(#mask0_7541_22801)">
<path d="M7.58335 12.2196V11.1089H8.69387V12.2196H7.58335ZM6.47283 11.1089V8.36054H7.58335V11.1089H6.47283ZM10.8589 9.24677V7.25002H11.9696V9.24677H10.8589ZM9.74839 7.25002V6.1395H10.8589V7.25002H9.74839ZM3.14112 8.36054V7.25002H4.25164V8.36054H3.14112ZM2.03046 7.25002V6.1395H3.14112V7.25002H2.03046ZM7.00002 3.39112V2.28046H8.11054V3.39112H7.00002ZM2.72594 4.91669H4.66669V2.97594H2.72594V4.91669ZM2.03046 5.08498V2.80779C2.03046 2.65836 2.08101 2.53314 2.18212 2.43212C2.28314 2.33101 2.40836 2.28046 2.55779 2.28046H4.83498C4.98431 2.28046 5.10953 2.33101 5.21064 2.43212C5.31166 2.53314 5.36216 2.65836 5.36216 2.80779V5.08498C5.36216 5.23431 5.31166 5.35953 5.21064 5.46064C5.10953 5.56166 4.98431 5.61217 4.83498 5.61217H2.55779C2.40836 5.61217 2.28314 5.56166 2.18212 5.46064C2.08101 5.35953 2.03046 5.23431 2.03046 5.08498ZM2.72594 11.5241H4.7116V9.58335H2.72594V11.5241ZM2.03046 11.6922V9.41506C2.03046 9.26573 2.08101 9.14051 2.18212 9.03939C2.28314 8.93838 2.40836 8.88787 2.55779 8.88787H4.87989C5.02923 8.88787 5.15445 8.93838 5.25556 9.03939C5.35657 9.14051 5.40708 9.26573 5.40708 9.41506V11.6922C5.40708 11.8417 5.35657 11.9669 5.25556 12.0679C5.15445 12.169 5.02923 12.2196 4.87989 12.2196H2.55779C2.40836 12.2196 2.28314 12.169 2.18212 12.0679C2.08101 11.9669 2.03046 11.8417 2.03046 11.6922ZM9.33335 4.91669H11.2741V2.97594H9.33335V4.91669ZM8.63787 5.08498V2.80779C8.63787 2.65836 8.68838 2.53314 8.78939 2.43212C8.89051 2.33101 9.01573 2.28046 9.16506 2.28046H11.4422C11.5917 2.28046 11.7169 2.33101 11.8179 2.43212C11.919 2.53314 11.9696 2.65836 11.9696 2.80779V5.08498C11.9696 5.23431 11.919 5.35953 11.8179 5.46064C11.7169 5.56166 11.5917 5.61217 11.4422 5.61217H9.16506C9.01573 5.61217 8.89051 5.56166 8.78939 5.46064C8.68838 5.35953 8.63787 5.23431 8.63787 5.08498ZM9.74839 12.2196V10.3573H8.63787V9.24677H10.8589V11.1089H11.9696V12.2196H9.74839ZM7.58335 8.36054V7.25002H9.74839V8.36054H7.58335ZM5.36216 8.36054V7.25002H4.25164V6.1395H7.58335V7.25002H6.47283V8.36054H5.36216ZM5.8895 5.61217V3.39112H7.00002V4.50164H8.11054V5.61217H5.8895ZM3.2925 4.35012V3.5425H4.10012V4.35012H3.2925ZM3.33173 10.9183V10.1105H4.1395V10.9183H3.33173ZM9.89991 4.35012V3.5425H10.7075V4.35012H9.89991Z" fill="#1C1B1F"/>
</g>
</svg>
