<svg width="14" height="15" viewBox="0 0 14 15" fill="none" xmlns="http://www.w3.org/2000/svg">
<mask id="mask0_7541_22840" style="mask-type:alpha" maskUnits="userSpaceOnUse" x="0" y="0" width="14" height="15">
<rect y="0.25" width="14" height="14" fill="#D9D9D9"/>
</mask>
<g mask="url(#mask0_7541_22840)">
<path d="M3.09619 12.2084C2.80151 12.2084 2.55209 12.1063 2.34792 11.9021C2.14376 11.6979 2.04167 11.4485 2.04167 11.1538V3.34621C2.04167 3.05153 2.14376 2.8021 2.34792 2.59794C2.55209 2.39377 2.80151 2.29169 3.09619 2.29169H9.35682C9.49915 2.29169 9.63478 2.31901 9.76369 2.37365C9.89261 2.42819 10.0049 2.50334 10.1006 2.5991L11.6509 4.14946C11.7467 4.24512 11.8218 4.35742 11.8764 4.48633C11.931 4.61525 11.9583 4.75087 11.9583 4.89321V11.1538C11.9583 11.4485 11.8563 11.6979 11.6521 11.9021C11.4479 12.1063 11.1985 12.2084 10.9038 12.2084H3.09619ZM6.99869 10.3238C7.40343 10.3238 7.74789 10.1821 8.03207 9.89879C8.31625 9.61549 8.45834 9.27146 8.45834 8.86673C8.45834 8.46199 8.31669 8.11753 8.03338 7.83335C7.75007 7.54917 7.40605 7.40708 7.00132 7.40708C6.59658 7.40708 6.25212 7.54874 5.96794 7.83204C5.68376 8.11535 5.54167 8.45937 5.54167 8.8641C5.54167 9.26884 5.68333 9.6133 5.96663 9.89748C6.24994 10.1817 6.59396 10.3238 6.99869 10.3238ZM4.25163 6.01598H7.98598C8.13707 6.01598 8.26292 5.96547 8.36355 5.86446C8.46408 5.76344 8.51434 5.63822 8.51434 5.48879V4.50165C8.51434 4.35221 8.46383 4.22699 8.36282 4.12598C8.2618 4.02497 8.13658 3.97446 7.98715 3.97446H4.2528C4.10171 3.97446 3.97586 4.02497 3.87523 4.12598C3.77471 4.22699 3.72444 4.35221 3.72444 4.50165V5.48879C3.72444 5.63822 3.77495 5.76344 3.87596 5.86446C3.97698 5.96547 4.1022 6.01598 4.25163 6.01598Z" fill="#1C1B1F"/>
</g>
</svg>
