<svg width="12" height="12" viewBox="0 0 12 12" fill="none" xmlns="http://www.w3.org/2000/svg">
    <path d="M5.99995 7.22422L1.71245 11.5117C1.55203 11.6721 1.34787 11.7523 1.09995 11.7523C0.852035 11.7523 0.647868 11.6721 0.487451 11.5117C0.327035 11.3513 0.246826 11.1471 0.246826 10.8992C0.246826 10.6513 0.327035 10.4471 0.487451 10.2867L4.77495 5.99922L0.487451 1.71172C0.327035 1.5513 0.246826 1.34714 0.246826 1.09922C0.246826 0.851302 0.327035 0.647135 0.487451 0.486719C0.647868 0.326302 0.852035 0.246094 1.09995 0.246094C1.34787 0.246094 1.55203 0.326302 1.71245 0.486719L5.99995 4.77422L10.2875 0.486719C10.4479 0.326302 10.652 0.246094 10.9 0.246094C11.1479 0.246094 11.352 0.326302 11.5125 0.486719C11.6729 0.647135 11.7531 0.851302 11.7531 1.09922C11.7531 1.34714 11.6729 1.5513 11.5125 1.71172L7.22495 5.99922L11.5125 10.2867C11.6729 10.4471 11.7531 10.6513 11.7531 10.8992C11.7531 11.1471 11.6729 11.3513 11.5125 11.5117C11.352 11.6721 11.1479 11.7523 10.9 11.7523C10.652 11.7523 10.4479 11.6721 10.2875 11.5117L5.99995 7.22422Z" fill="#1C1B1F"/>
</svg>
