<svg width="17" height="15" viewBox="0 0 17 15" fill="none" xmlns="http://www.w3.org/2000/svg">
<path d="M14.7499 4.99999C15.1499 4.99999 15.4999 5.14999 15.7999 5.44999C16.0999 5.74999 16.2499 6.09999 16.2499 6.49999V7.99999C16.2499 8.08749 16.2405 8.18124 16.2218 8.28124C16.203 8.38124 16.1749 8.47499 16.1374 8.56249L13.8874 13.85C13.7749 14.1 13.5874 14.3125 13.3249 14.4875C13.0624 14.6625 12.7874 14.75 12.4999 14.75H6.49988C6.08738 14.75 5.73425 14.6031 5.4405 14.3094C5.14675 14.0156 4.99988 13.6625 4.99988 13.25V5.61874C4.99988 5.41874 5.0405 5.22812 5.12175 5.04687C5.203 4.86562 5.31238 4.70624 5.44988 4.56874L9.51863 0.518743C9.70613 0.343743 9.928 0.237492 10.1843 0.199992C10.4405 0.162492 10.6874 0.206242 10.9249 0.331243C11.1624 0.456243 11.3343 0.631243 11.4405 0.856243C11.5468 1.08124 11.5686 1.31249 11.5061 1.54999L10.6624 4.99999H14.7499ZM1.99988 14.75C1.58738 14.75 1.23425 14.6031 0.940503 14.3094C0.646753 14.0156 0.499878 13.6625 0.499878 13.25V6.49999C0.499878 6.08749 0.646753 5.73437 0.940503 5.44062C1.23425 5.14687 1.58738 4.99999 1.99988 4.99999C2.41238 4.99999 2.7655 5.14687 3.05925 5.44062C3.353 5.73437 3.49988 6.08749 3.49988 6.49999V13.25C3.49988 13.6625 3.353 14.0156 3.05925 14.3094C2.7655 14.6031 2.41238 14.75 1.99988 14.75Z" fill="white"/>
</svg>
