<svg width="16" height="15" viewBox="0 0 16 15" fill="none" xmlns="http://www.w3.org/2000/svg">
<path d="M14.0716 15L10.8994 11.7764C10.437 11.9597 9.96181 12.0919 9.47381 12.1732C8.98581 12.2545 8.49002 12.2952 7.98643 12.2952C6.33597 12.2952 4.82448 11.8457 3.45194 10.9466C2.07941 10.0476 0.991584 8.86271 0.188459 7.39193C0.123124 7.27666 0.0753836 7.15933 0.045238 7.03994C0.0150793 6.92055 0 6.7991 0 6.67559C0 6.55208 0.0163338 6.42935 0.0490013 6.30739C0.0816688 6.18543 0.13067 6.06938 0.196005 5.95925C0.508607 5.42714 0.84081 4.91226 1.19261 4.41462C1.54443 3.91699 1.95353 3.47673 2.41992 3.09386L0.24877 0.846015L1.07501 0L14.8978 14.154L14.0716 15ZM7.98643 9.94854C8.16032 9.94854 8.32642 9.93799 8.48473 9.91689C8.64305 9.89579 8.7976 9.84973 8.94838 9.77871L4.95591 5.69059C4.89158 5.84498 4.84786 6.00324 4.82475 6.16535C4.80162 6.32745 4.79005 6.49753 4.79005 6.67559C4.79005 7.58645 5.10039 8.35966 5.72108 8.99521C6.34176 9.63076 7.09688 9.94854 7.98643 9.94854ZM13.4384 10.3561L10.9792 7.85816C11.0456 7.66673 11.0961 7.47375 11.1308 7.27922C11.1655 7.0847 11.1828 6.88349 11.1828 6.67559C11.1828 5.76473 10.8725 4.99152 10.2518 4.35597C9.63109 3.72042 8.87598 3.40264 7.98643 3.40264C7.78339 3.40264 7.58689 3.42168 7.39692 3.45976C7.20694 3.49784 7.02099 3.56011 6.83907 3.64657L4.87751 1.64575C5.37606 1.44402 5.88441 1.29529 6.40257 1.19957C6.92071 1.10385 7.44867 1.05599 7.98643 1.05599C9.64191 1.05599 11.1604 1.50756 12.542 2.41072C13.9236 3.31387 15.0134 4.50598 15.8115 5.98705C15.8718 6.08894 15.9183 6.19829 15.951 6.31511C15.9837 6.43192 16 6.55208 16 6.67559C16 6.7991 15.9857 6.91926 15.957 7.03607C15.9284 7.15289 15.8839 7.26225 15.8236 7.36414C15.52 7.94669 15.1738 8.49038 14.7848 8.99521C14.3958 9.50005 13.947 9.95369 13.4384 10.3561ZM10.0912 6.95657L7.73162 4.54816C8.06131 4.48126 8.38246 4.50545 8.69506 4.62072C9.00767 4.736 9.27754 4.9156 9.5047 5.15952C9.7369 5.40036 9.90451 5.67723 10.0075 5.99012C10.1106 6.30301 10.1385 6.62516 10.0912 6.95657Z" fill="white"/>
</svg>
